<mxfile host="app.diagrams.net" agent="Mozilla/5.0 (Windows NT 10.0; Win64; x64) AppleWebKit/537.36 (KHTML, like Gecko) Chrome/127.0.0.0 Safari/537.36 Edg/127.0.0.0" version="24.7.5">
  <diagram name="Trang-1" id="Zf4HEIr6htCYJf661O6L">
    <mxGraphModel dx="1661" dy="1660" grid="1" gridSize="10" guides="1" tooltips="1" connect="1" arrows="1" fold="1" page="1" pageScale="1" pageWidth="827" pageHeight="1169" math="0" shadow="0">
      <root>
        <mxCell id="0" />
        <mxCell id="1" parent="0" />
        <mxCell id="qxAZUziXXPFpN-YLYpxu-1" style="edgeStyle=none;shape=connector;rounded=0;orthogonalLoop=1;jettySize=auto;html=1;strokeColor=default;align=center;verticalAlign=middle;fontFamily=Helvetica;fontSize=11;fontColor=default;labelBackgroundColor=default;endArrow=none;endFill=0;" parent="1" source="qxAZUziXXPFpN-YLYpxu-24" target="qxAZUziXXPFpN-YLYpxu-6" edge="1">
          <mxGeometry relative="1" as="geometry">
            <mxPoint x="-770" y="592.5" as="sourcePoint" />
            <mxPoint x="-770" y="742.5" as="targetPoint" />
          </mxGeometry>
        </mxCell>
        <mxCell id="qxAZUziXXPFpN-YLYpxu-2" value="1" style="edgeLabel;html=1;align=center;verticalAlign=middle;resizable=0;points=[];fontFamily=Helvetica;fontSize=11;fontColor=default;labelBackgroundColor=default;" parent="qxAZUziXXPFpN-YLYpxu-1" vertex="1" connectable="0">
          <mxGeometry x="0.8101" relative="1" as="geometry">
            <mxPoint y="8" as="offset" />
          </mxGeometry>
        </mxCell>
        <mxCell id="qxAZUziXXPFpN-YLYpxu-3" value="Role name" style="ellipse;whiteSpace=wrap;html=1;" parent="1" vertex="1">
          <mxGeometry x="-763" y="780" width="90" height="50" as="geometry" />
        </mxCell>
        <mxCell id="qxAZUziXXPFpN-YLYpxu-4" style="edgeStyle=none;shape=connector;rounded=0;orthogonalLoop=1;jettySize=auto;html=1;strokeColor=default;align=center;verticalAlign=middle;fontFamily=Helvetica;fontSize=11;fontColor=default;labelBackgroundColor=default;endArrow=none;endFill=0;" parent="1" source="qxAZUziXXPFpN-YLYpxu-6" target="qxAZUziXXPFpN-YLYpxu-3" edge="1">
          <mxGeometry relative="1" as="geometry" />
        </mxCell>
        <mxCell id="qxAZUziXXPFpN-YLYpxu-5" style="edgeStyle=none;shape=connector;rounded=0;orthogonalLoop=1;jettySize=auto;html=1;strokeColor=default;align=center;verticalAlign=middle;fontFamily=Helvetica;fontSize=11;fontColor=default;labelBackgroundColor=default;endArrow=none;endFill=0;" parent="1" source="qxAZUziXXPFpN-YLYpxu-6" target="qxAZUziXXPFpN-YLYpxu-10" edge="1">
          <mxGeometry relative="1" as="geometry" />
        </mxCell>
        <mxCell id="qxAZUziXXPFpN-YLYpxu-6" value="&lt;span style=&quot;font-size: 12px; background-color: rgb(251, 251, 251);&quot;&gt;Role&lt;/span&gt;" style="rounded=1;whiteSpace=wrap;html=1;fontFamily=Helvetica;fontSize=11;fontColor=default;labelBackgroundColor=default;" parent="1" vertex="1">
          <mxGeometry x="-820" y="840" width="100" height="50" as="geometry" />
        </mxCell>
        <mxCell id="qxAZUziXXPFpN-YLYpxu-7" style="edgeStyle=none;shape=connector;rounded=0;orthogonalLoop=1;jettySize=auto;html=1;strokeColor=default;align=center;verticalAlign=middle;fontFamily=Helvetica;fontSize=11;fontColor=default;labelBackgroundColor=default;endArrow=none;endFill=0;" parent="1" source="qxAZUziXXPFpN-YLYpxu-9" target="qxAZUziXXPFpN-YLYpxu-11" edge="1">
          <mxGeometry relative="1" as="geometry" />
        </mxCell>
        <mxCell id="qxAZUziXXPFpN-YLYpxu-8" style="edgeStyle=none;shape=connector;rounded=0;orthogonalLoop=1;jettySize=auto;html=1;strokeColor=default;align=center;verticalAlign=middle;fontFamily=Helvetica;fontSize=11;fontColor=default;labelBackgroundColor=default;endArrow=none;endFill=0;" parent="1" source="qxAZUziXXPFpN-YLYpxu-9" target="qxAZUziXXPFpN-YLYpxu-12" edge="1">
          <mxGeometry relative="1" as="geometry" />
        </mxCell>
        <mxCell id="qxAZUziXXPFpN-YLYpxu-9" value="&lt;span style=&quot;font-size: 12px; background-color: rgb(251, 251, 251);&quot;&gt;UserRole&lt;/span&gt;" style="rounded=1;whiteSpace=wrap;html=1;fontFamily=Helvetica;fontSize=11;fontColor=default;labelBackgroundColor=default;" parent="1" vertex="1">
          <mxGeometry x="-820" y="602.5" width="100" height="50" as="geometry" />
        </mxCell>
        <mxCell id="qxAZUziXXPFpN-YLYpxu-10" value="Role Id" style="ellipse;whiteSpace=wrap;html=1;fontStyle=5" parent="1" vertex="1">
          <mxGeometry x="-710" y="830" width="90" height="50" as="geometry" />
        </mxCell>
        <mxCell id="qxAZUziXXPFpN-YLYpxu-11" value="Role Id" style="ellipse;whiteSpace=wrap;html=1;fontStyle=5" parent="1" vertex="1">
          <mxGeometry x="-750" y="662.5" width="90" height="50" as="geometry" />
        </mxCell>
        <mxCell id="qxAZUziXXPFpN-YLYpxu-12" value="User Id" style="ellipse;whiteSpace=wrap;html=1;fontStyle=5" parent="1" vertex="1">
          <mxGeometry x="-815" y="542.5" width="90" height="50" as="geometry" />
        </mxCell>
        <mxCell id="qxAZUziXXPFpN-YLYpxu-13" style="edgeStyle=none;shape=connector;rounded=0;orthogonalLoop=1;jettySize=auto;html=1;strokeColor=default;align=center;verticalAlign=middle;fontFamily=Helvetica;fontSize=11;fontColor=default;labelBackgroundColor=default;endArrow=none;endFill=0;" parent="1" source="qxAZUziXXPFpN-YLYpxu-16" target="qxAZUziXXPFpN-YLYpxu-19" edge="1">
          <mxGeometry relative="1" as="geometry" />
        </mxCell>
        <mxCell id="qxAZUziXXPFpN-YLYpxu-14" style="edgeStyle=none;shape=connector;rounded=0;orthogonalLoop=1;jettySize=auto;html=1;strokeColor=default;align=center;verticalAlign=middle;fontFamily=Helvetica;fontSize=11;fontColor=default;labelBackgroundColor=default;endArrow=none;endFill=0;" parent="1" source="qxAZUziXXPFpN-YLYpxu-16" target="qxAZUziXXPFpN-YLYpxu-33" edge="1">
          <mxGeometry relative="1" as="geometry">
            <mxPoint x="-390.34339640048233" y="665.2005077917793" as="targetPoint" />
          </mxGeometry>
        </mxCell>
        <mxCell id="qxAZUziXXPFpN-YLYpxu-15" style="edgeStyle=none;shape=connector;rounded=0;orthogonalLoop=1;jettySize=auto;html=1;strokeColor=default;align=center;verticalAlign=middle;fontFamily=Helvetica;fontSize=11;fontColor=default;labelBackgroundColor=default;endArrow=none;endFill=0;" parent="1" source="qxAZUziXXPFpN-YLYpxu-16" target="qxAZUziXXPFpN-YLYpxu-34" edge="1">
          <mxGeometry relative="1" as="geometry" />
        </mxCell>
        <mxCell id="9iDccagzdrMHLPE6jfmN-78" style="edgeStyle=none;shape=connector;rounded=0;orthogonalLoop=1;jettySize=auto;html=1;strokeColor=default;align=center;verticalAlign=middle;fontFamily=Helvetica;fontSize=11;fontColor=default;labelBackgroundColor=default;endArrow=none;endFill=0;" edge="1" parent="1" source="9iDccagzdrMHLPE6jfmN-89" target="9iDccagzdrMHLPE6jfmN-77">
          <mxGeometry relative="1" as="geometry" />
        </mxCell>
        <mxCell id="9iDccagzdrMHLPE6jfmN-87" value="0,n" style="edgeLabel;html=1;align=center;verticalAlign=middle;resizable=0;points=[];fontFamily=Helvetica;fontSize=11;fontColor=default;labelBackgroundColor=default;" vertex="1" connectable="0" parent="9iDccagzdrMHLPE6jfmN-78">
          <mxGeometry x="0.8099" y="2" relative="1" as="geometry">
            <mxPoint x="-11" y="2" as="offset" />
          </mxGeometry>
        </mxCell>
        <mxCell id="9iDccagzdrMHLPE6jfmN-113" style="edgeStyle=none;shape=connector;rounded=0;orthogonalLoop=1;jettySize=auto;html=1;strokeColor=default;align=center;verticalAlign=middle;fontFamily=Helvetica;fontSize=11;fontColor=default;labelBackgroundColor=default;endArrow=none;endFill=0;" edge="1" parent="1" source="qxAZUziXXPFpN-YLYpxu-16" target="9iDccagzdrMHLPE6jfmN-112">
          <mxGeometry relative="1" as="geometry" />
        </mxCell>
        <mxCell id="9iDccagzdrMHLPE6jfmN-289" style="edgeStyle=none;shape=connector;rounded=0;orthogonalLoop=1;jettySize=auto;html=1;strokeColor=default;align=center;verticalAlign=middle;fontFamily=Helvetica;fontSize=11;fontColor=default;labelBackgroundColor=default;endArrow=none;endFill=0;" edge="1" parent="1" source="qxAZUziXXPFpN-YLYpxu-16" target="9iDccagzdrMHLPE6jfmN-288">
          <mxGeometry relative="1" as="geometry" />
        </mxCell>
        <mxCell id="qxAZUziXXPFpN-YLYpxu-16" value="&lt;span style=&quot;font-size: 12px; background-color: rgb(251, 251, 251);&quot;&gt;User&lt;/span&gt;" style="rounded=1;whiteSpace=wrap;html=1;fontFamily=Helvetica;fontSize=11;fontColor=default;labelBackgroundColor=default;" parent="1" vertex="1">
          <mxGeometry x="-475" y="602.5" width="100" height="50" as="geometry" />
        </mxCell>
        <mxCell id="qxAZUziXXPFpN-YLYpxu-17" style="edgeStyle=none;shape=connector;rounded=0;orthogonalLoop=1;jettySize=auto;html=1;strokeColor=default;align=center;verticalAlign=middle;fontFamily=Helvetica;fontSize=11;fontColor=default;labelBackgroundColor=default;endArrow=none;endFill=0;" parent="1" source="qxAZUziXXPFpN-YLYpxu-18" target="qxAZUziXXPFpN-YLYpxu-16" edge="1">
          <mxGeometry relative="1" as="geometry" />
        </mxCell>
        <mxCell id="qxAZUziXXPFpN-YLYpxu-18" value="User Id" style="ellipse;whiteSpace=wrap;html=1;fontStyle=5" parent="1" vertex="1">
          <mxGeometry x="-520" y="510" width="90" height="50" as="geometry" />
        </mxCell>
        <mxCell id="qxAZUziXXPFpN-YLYpxu-19" value="Password" style="ellipse;whiteSpace=wrap;html=1;fontStyle=0" parent="1" vertex="1">
          <mxGeometry x="-580" y="640" width="90" height="50" as="geometry" />
        </mxCell>
        <mxCell id="qxAZUziXXPFpN-YLYpxu-20" style="edgeStyle=none;shape=connector;rounded=0;orthogonalLoop=1;jettySize=auto;html=1;strokeColor=default;align=center;verticalAlign=middle;fontFamily=Helvetica;fontSize=11;fontColor=default;labelBackgroundColor=default;endArrow=none;endFill=0;" parent="1" source="qxAZUziXXPFpN-YLYpxu-21" target="qxAZUziXXPFpN-YLYpxu-16" edge="1">
          <mxGeometry relative="1" as="geometry">
            <mxPoint x="-393.73484069291453" y="573.8070572010515" as="sourcePoint" />
          </mxGeometry>
        </mxCell>
        <mxCell id="qxAZUziXXPFpN-YLYpxu-21" value="User name" style="ellipse;whiteSpace=wrap;html=1;fontStyle=0" parent="1" vertex="1">
          <mxGeometry x="-410" y="492.5" width="90" height="50" as="geometry" />
        </mxCell>
        <mxCell id="qxAZUziXXPFpN-YLYpxu-22" value="" style="edgeStyle=none;shape=connector;rounded=0;orthogonalLoop=1;jettySize=auto;html=1;strokeColor=default;align=center;verticalAlign=middle;fontFamily=Helvetica;fontSize=11;fontColor=default;labelBackgroundColor=default;endArrow=none;endFill=0;" parent="1" source="qxAZUziXXPFpN-YLYpxu-9" target="qxAZUziXXPFpN-YLYpxu-24" edge="1">
          <mxGeometry relative="1" as="geometry">
            <mxPoint x="-770" y="602.5" as="sourcePoint" />
            <mxPoint x="-770" y="532.5" as="targetPoint" />
          </mxGeometry>
        </mxCell>
        <mxCell id="qxAZUziXXPFpN-YLYpxu-23" value="n" style="edgeLabel;html=1;align=center;verticalAlign=middle;resizable=0;points=[];fontFamily=Helvetica;fontSize=11;fontColor=default;labelBackgroundColor=default;" parent="qxAZUziXXPFpN-YLYpxu-22" vertex="1" connectable="0">
          <mxGeometry x="-0.7807" y="1" relative="1" as="geometry">
            <mxPoint x="1" y="-12" as="offset" />
          </mxGeometry>
        </mxCell>
        <mxCell id="qxAZUziXXPFpN-YLYpxu-24" value="Has" style="rhombus;whiteSpace=wrap;html=1;fontFamily=Helvetica;fontSize=11;fontColor=default;labelBackgroundColor=default;" parent="1" vertex="1">
          <mxGeometry x="-795" y="730" width="50" height="50" as="geometry" />
        </mxCell>
        <mxCell id="qxAZUziXXPFpN-YLYpxu-25" value="" style="rounded=0;orthogonalLoop=1;jettySize=auto;html=1;endArrow=none;endFill=0;" parent="1" source="qxAZUziXXPFpN-YLYpxu-16" target="qxAZUziXXPFpN-YLYpxu-29" edge="1">
          <mxGeometry x="0.8947" relative="1" as="geometry">
            <mxPoint x="-475" y="627.5" as="sourcePoint" />
            <mxPoint x="-720" y="627.5" as="targetPoint" />
            <mxPoint as="offset" />
          </mxGeometry>
        </mxCell>
        <mxCell id="qxAZUziXXPFpN-YLYpxu-26" value="1" style="edgeLabel;html=1;align=center;verticalAlign=middle;resizable=0;points=[];fontFamily=Helvetica;fontSize=11;fontColor=default;labelBackgroundColor=default;" parent="qxAZUziXXPFpN-YLYpxu-25" vertex="1" connectable="0">
          <mxGeometry x="-0.2642" y="-3" relative="1" as="geometry">
            <mxPoint x="16" y="3" as="offset" />
          </mxGeometry>
        </mxCell>
        <mxCell id="qxAZUziXXPFpN-YLYpxu-27" style="edgeStyle=none;shape=connector;rounded=0;orthogonalLoop=1;jettySize=auto;html=1;strokeColor=default;align=center;verticalAlign=middle;fontFamily=Helvetica;fontSize=11;fontColor=default;labelBackgroundColor=default;endArrow=none;endFill=0;" parent="1" source="qxAZUziXXPFpN-YLYpxu-29" target="qxAZUziXXPFpN-YLYpxu-9" edge="1">
          <mxGeometry relative="1" as="geometry" />
        </mxCell>
        <mxCell id="qxAZUziXXPFpN-YLYpxu-28" value="n" style="edgeLabel;html=1;align=center;verticalAlign=middle;resizable=0;points=[];fontFamily=Helvetica;fontSize=11;fontColor=default;labelBackgroundColor=default;" parent="qxAZUziXXPFpN-YLYpxu-27" vertex="1" connectable="0">
          <mxGeometry x="0.72" y="2" relative="1" as="geometry">
            <mxPoint as="offset" />
          </mxGeometry>
        </mxCell>
        <mxCell id="qxAZUziXXPFpN-YLYpxu-29" value="Has" style="rhombus;whiteSpace=wrap;html=1;fontFamily=Helvetica;fontSize=11;fontColor=default;labelBackgroundColor=default;" parent="1" vertex="1">
          <mxGeometry x="-610" y="602.5" width="50" height="50" as="geometry" />
        </mxCell>
        <mxCell id="qxAZUziXXPFpN-YLYpxu-30" value="" style="edgeStyle=none;shape=connector;rounded=0;orthogonalLoop=1;jettySize=auto;html=1;strokeColor=default;align=center;verticalAlign=middle;fontFamily=Helvetica;fontSize=11;fontColor=default;labelBackgroundColor=default;endArrow=none;endFill=0;" parent="1" source="qxAZUziXXPFpN-YLYpxu-16" target="qxAZUziXXPFpN-YLYpxu-32" edge="1">
          <mxGeometry relative="1" as="geometry">
            <mxPoint x="-375" y="628" as="sourcePoint" />
            <mxPoint x="-143" y="630" as="targetPoint" />
          </mxGeometry>
        </mxCell>
        <mxCell id="qxAZUziXXPFpN-YLYpxu-31" value="1" style="edgeLabel;html=1;align=center;verticalAlign=middle;resizable=0;points=[];fontFamily=Helvetica;fontSize=11;fontColor=default;labelBackgroundColor=default;" parent="qxAZUziXXPFpN-YLYpxu-30" vertex="1" connectable="0">
          <mxGeometry x="-0.613" y="-2" relative="1" as="geometry">
            <mxPoint as="offset" />
          </mxGeometry>
        </mxCell>
        <mxCell id="qxAZUziXXPFpN-YLYpxu-37" style="edgeStyle=none;shape=connector;rounded=0;orthogonalLoop=1;jettySize=auto;html=1;strokeColor=default;align=center;verticalAlign=middle;fontFamily=Helvetica;fontSize=11;fontColor=default;labelBackgroundColor=default;endArrow=none;endFill=0;" parent="1" source="qxAZUziXXPFpN-YLYpxu-32" target="qxAZUziXXPFpN-YLYpxu-35" edge="1">
          <mxGeometry relative="1" as="geometry" />
        </mxCell>
        <mxCell id="qxAZUziXXPFpN-YLYpxu-50" value="1" style="edgeLabel;html=1;align=center;verticalAlign=middle;resizable=0;points=[];fontFamily=Helvetica;fontSize=11;fontColor=default;labelBackgroundColor=default;" parent="qxAZUziXXPFpN-YLYpxu-37" vertex="1" connectable="0">
          <mxGeometry x="0.5674" y="-3" relative="1" as="geometry">
            <mxPoint y="-3" as="offset" />
          </mxGeometry>
        </mxCell>
        <mxCell id="qxAZUziXXPFpN-YLYpxu-32" value="Has" style="rhombus;whiteSpace=wrap;html=1;fontFamily=Helvetica;fontSize=11;fontColor=default;labelBackgroundColor=default;" parent="1" vertex="1">
          <mxGeometry x="-283" y="740" width="50" height="50" as="geometry" />
        </mxCell>
        <mxCell id="qxAZUziXXPFpN-YLYpxu-33" value="Email" style="ellipse;whiteSpace=wrap;html=1;fontStyle=0" parent="1" vertex="1">
          <mxGeometry x="-620" y="700" width="90" height="50" as="geometry" />
        </mxCell>
        <mxCell id="qxAZUziXXPFpN-YLYpxu-34" value="Phone number" style="ellipse;whiteSpace=wrap;html=1;fontStyle=0" parent="1" vertex="1">
          <mxGeometry x="-390" y="552.5" width="90" height="50" as="geometry" />
        </mxCell>
        <mxCell id="qxAZUziXXPFpN-YLYpxu-52" style="edgeStyle=none;shape=connector;rounded=0;orthogonalLoop=1;jettySize=auto;html=1;strokeColor=default;align=center;verticalAlign=middle;fontFamily=Helvetica;fontSize=11;fontColor=default;labelBackgroundColor=default;endArrow=none;endFill=0;" parent="1" source="qxAZUziXXPFpN-YLYpxu-53" target="qxAZUziXXPFpN-YLYpxu-51" edge="1">
          <mxGeometry relative="1" as="geometry" />
        </mxCell>
        <mxCell id="qxAZUziXXPFpN-YLYpxu-56" value="n" style="edgeLabel;html=1;align=center;verticalAlign=middle;resizable=0;points=[];fontFamily=Helvetica;fontSize=11;fontColor=default;labelBackgroundColor=default;" parent="qxAZUziXXPFpN-YLYpxu-52" vertex="1" connectable="0">
          <mxGeometry x="0.5388" y="1" relative="1" as="geometry">
            <mxPoint as="offset" />
          </mxGeometry>
        </mxCell>
        <mxCell id="9iDccagzdrMHLPE6jfmN-218" style="edgeStyle=none;shape=connector;rounded=0;orthogonalLoop=1;jettySize=auto;html=1;strokeColor=default;align=center;verticalAlign=middle;fontFamily=Helvetica;fontSize=11;fontColor=default;labelBackgroundColor=default;endArrow=none;endFill=0;" edge="1" parent="1" source="qxAZUziXXPFpN-YLYpxu-35" target="9iDccagzdrMHLPE6jfmN-217">
          <mxGeometry relative="1" as="geometry" />
        </mxCell>
        <mxCell id="qxAZUziXXPFpN-YLYpxu-35" value="&lt;span style=&quot;font-size: 12px; background-color: rgb(251, 251, 251);&quot;&gt;Bought library&lt;/span&gt;" style="rounded=1;whiteSpace=wrap;html=1;fontFamily=Helvetica;fontSize=11;fontColor=default;labelBackgroundColor=default;" parent="1" vertex="1">
          <mxGeometry x="-150" y="740" width="100" height="50" as="geometry" />
        </mxCell>
        <mxCell id="qxAZUziXXPFpN-YLYpxu-40" style="edgeStyle=none;shape=connector;rounded=0;orthogonalLoop=1;jettySize=auto;html=1;strokeColor=default;align=center;verticalAlign=middle;fontFamily=Helvetica;fontSize=11;fontColor=default;labelBackgroundColor=default;endArrow=none;endFill=0;" parent="1" source="qxAZUziXXPFpN-YLYpxu-38" target="qxAZUziXXPFpN-YLYpxu-39" edge="1">
          <mxGeometry relative="1" as="geometry" />
        </mxCell>
        <mxCell id="qxAZUziXXPFpN-YLYpxu-42" value="n" style="edgeLabel;html=1;align=center;verticalAlign=middle;resizable=0;points=[];fontFamily=Helvetica;fontSize=11;fontColor=default;labelBackgroundColor=default;" parent="qxAZUziXXPFpN-YLYpxu-40" vertex="1" connectable="0">
          <mxGeometry x="-0.6172" y="1" relative="1" as="geometry">
            <mxPoint as="offset" />
          </mxGeometry>
        </mxCell>
        <mxCell id="qxAZUziXXPFpN-YLYpxu-45" style="edgeStyle=none;shape=connector;rounded=0;orthogonalLoop=1;jettySize=auto;html=1;strokeColor=default;align=center;verticalAlign=middle;fontFamily=Helvetica;fontSize=11;fontColor=default;labelBackgroundColor=default;endArrow=none;endFill=0;" parent="1" source="qxAZUziXXPFpN-YLYpxu-38" target="qxAZUziXXPFpN-YLYpxu-44" edge="1">
          <mxGeometry relative="1" as="geometry" />
        </mxCell>
        <mxCell id="qxAZUziXXPFpN-YLYpxu-47" style="edgeStyle=none;shape=connector;rounded=0;orthogonalLoop=1;jettySize=auto;html=1;strokeColor=default;align=center;verticalAlign=middle;fontFamily=Helvetica;fontSize=11;fontColor=default;labelBackgroundColor=default;endArrow=none;endFill=0;" parent="1" source="qxAZUziXXPFpN-YLYpxu-38" target="qxAZUziXXPFpN-YLYpxu-46" edge="1">
          <mxGeometry relative="1" as="geometry" />
        </mxCell>
        <mxCell id="qxAZUziXXPFpN-YLYpxu-49" style="edgeStyle=none;shape=connector;rounded=0;orthogonalLoop=1;jettySize=auto;html=1;strokeColor=default;align=center;verticalAlign=middle;fontFamily=Helvetica;fontSize=11;fontColor=default;labelBackgroundColor=default;endArrow=none;endFill=0;" parent="1" source="qxAZUziXXPFpN-YLYpxu-38" target="qxAZUziXXPFpN-YLYpxu-48" edge="1">
          <mxGeometry relative="1" as="geometry" />
        </mxCell>
        <mxCell id="qxAZUziXXPFpN-YLYpxu-38" value="&lt;span style=&quot;font-size: 12px; background-color: rgb(251, 251, 251);&quot;&gt;Friend&lt;/span&gt;" style="rounded=1;whiteSpace=wrap;html=1;fontFamily=Helvetica;fontSize=11;fontColor=default;labelBackgroundColor=default;" parent="1" vertex="1">
          <mxGeometry x="-475" y="840" width="100" height="50" as="geometry" />
        </mxCell>
        <mxCell id="qxAZUziXXPFpN-YLYpxu-41" style="edgeStyle=none;shape=connector;rounded=0;orthogonalLoop=1;jettySize=auto;html=1;strokeColor=default;align=center;verticalAlign=middle;fontFamily=Helvetica;fontSize=11;fontColor=default;labelBackgroundColor=default;endArrow=none;endFill=0;" parent="1" source="qxAZUziXXPFpN-YLYpxu-39" target="qxAZUziXXPFpN-YLYpxu-16" edge="1">
          <mxGeometry relative="1" as="geometry" />
        </mxCell>
        <mxCell id="qxAZUziXXPFpN-YLYpxu-43" value="1" style="edgeLabel;html=1;align=center;verticalAlign=middle;resizable=0;points=[];fontFamily=Helvetica;fontSize=11;fontColor=default;labelBackgroundColor=default;" parent="qxAZUziXXPFpN-YLYpxu-41" vertex="1" connectable="0">
          <mxGeometry x="0.6868" y="2" relative="1" as="geometry">
            <mxPoint x="-2" y="-2" as="offset" />
          </mxGeometry>
        </mxCell>
        <mxCell id="qxAZUziXXPFpN-YLYpxu-39" value="Has" style="rhombus;whiteSpace=wrap;html=1;fontFamily=Helvetica;fontSize=11;fontColor=default;labelBackgroundColor=default;" parent="1" vertex="1">
          <mxGeometry x="-450" y="730" width="50" height="50" as="geometry" />
        </mxCell>
        <mxCell id="qxAZUziXXPFpN-YLYpxu-44" value="Friend Id" style="ellipse;whiteSpace=wrap;html=1;fontStyle=4" parent="1" vertex="1">
          <mxGeometry x="-530" y="780" width="90" height="50" as="geometry" />
        </mxCell>
        <mxCell id="qxAZUziXXPFpN-YLYpxu-46" value="Friend since" style="ellipse;whiteSpace=wrap;html=1;" parent="1" vertex="1">
          <mxGeometry x="-400" y="788.75" width="90" height="50" as="geometry" />
        </mxCell>
        <mxCell id="qxAZUziXXPFpN-YLYpxu-48" value="User Id" style="ellipse;whiteSpace=wrap;html=1;fontStyle=5" parent="1" vertex="1">
          <mxGeometry x="-580" y="840" width="90" height="50" as="geometry" />
        </mxCell>
        <mxCell id="qxAZUziXXPFpN-YLYpxu-58" style="edgeStyle=none;shape=connector;rounded=0;orthogonalLoop=1;jettySize=auto;html=1;strokeColor=default;align=center;verticalAlign=middle;fontFamily=Helvetica;fontSize=11;fontColor=default;labelBackgroundColor=default;endArrow=none;endFill=0;" parent="1" source="qxAZUziXXPFpN-YLYpxu-59" target="qxAZUziXXPFpN-YLYpxu-57" edge="1">
          <mxGeometry relative="1" as="geometry" />
        </mxCell>
        <mxCell id="qxAZUziXXPFpN-YLYpxu-62" value="1" style="edgeLabel;html=1;align=center;verticalAlign=middle;resizable=0;points=[];fontFamily=Helvetica;fontSize=11;fontColor=default;labelBackgroundColor=default;" parent="qxAZUziXXPFpN-YLYpxu-58" vertex="1" connectable="0">
          <mxGeometry x="0.4" y="3" relative="1" as="geometry">
            <mxPoint as="offset" />
          </mxGeometry>
        </mxCell>
        <mxCell id="qxAZUziXXPFpN-YLYpxu-51" value="&lt;span style=&quot;font-size: 12px; background-color: rgb(251, 251, 251);&quot;&gt;Game-&lt;/span&gt;&lt;span style=&quot;font-size: 12px; background-color: rgb(251, 251, 251);&quot;&gt;Bought library&lt;/span&gt;" style="rounded=1;whiteSpace=wrap;html=1;fontFamily=Helvetica;fontSize=11;fontColor=default;labelBackgroundColor=default;" parent="1" vertex="1">
          <mxGeometry x="149" y="738.75" width="100" height="50" as="geometry" />
        </mxCell>
        <mxCell id="qxAZUziXXPFpN-YLYpxu-54" value="" style="edgeStyle=none;shape=connector;rounded=0;orthogonalLoop=1;jettySize=auto;html=1;strokeColor=default;align=center;verticalAlign=middle;fontFamily=Helvetica;fontSize=11;fontColor=default;labelBackgroundColor=default;endArrow=none;endFill=0;" parent="1" source="qxAZUziXXPFpN-YLYpxu-35" target="qxAZUziXXPFpN-YLYpxu-53" edge="1">
          <mxGeometry relative="1" as="geometry">
            <mxPoint x="-60" y="628" as="sourcePoint" />
            <mxPoint x="150" y="630" as="targetPoint" />
          </mxGeometry>
        </mxCell>
        <mxCell id="qxAZUziXXPFpN-YLYpxu-55" value="1" style="edgeLabel;html=1;align=center;verticalAlign=middle;resizable=0;points=[];fontFamily=Helvetica;fontSize=11;fontColor=default;labelBackgroundColor=default;" parent="qxAZUziXXPFpN-YLYpxu-54" vertex="1" connectable="0">
          <mxGeometry x="-0.731" y="-1" relative="1" as="geometry">
            <mxPoint as="offset" />
          </mxGeometry>
        </mxCell>
        <mxCell id="qxAZUziXXPFpN-YLYpxu-53" value="Of" style="rhombus;whiteSpace=wrap;html=1;fontFamily=Helvetica;fontSize=11;fontColor=default;labelBackgroundColor=default;" parent="1" vertex="1">
          <mxGeometry x="20" y="740" width="50" height="50" as="geometry" />
        </mxCell>
        <mxCell id="9iDccagzdrMHLPE6jfmN-17" style="edgeStyle=none;shape=connector;rounded=0;orthogonalLoop=1;jettySize=auto;html=1;strokeColor=default;align=center;verticalAlign=middle;fontFamily=Helvetica;fontSize=11;fontColor=default;labelBackgroundColor=default;endArrow=none;endFill=0;" edge="1" parent="1" source="9iDccagzdrMHLPE6jfmN-40" target="9iDccagzdrMHLPE6jfmN-16">
          <mxGeometry relative="1" as="geometry" />
        </mxCell>
        <mxCell id="9iDccagzdrMHLPE6jfmN-38" value="1" style="edgeLabel;html=1;align=center;verticalAlign=middle;resizable=0;points=[];fontFamily=Helvetica;fontSize=11;fontColor=default;labelBackgroundColor=default;" vertex="1" connectable="0" parent="9iDccagzdrMHLPE6jfmN-17">
          <mxGeometry x="0.7502" relative="1" as="geometry">
            <mxPoint x="-13" as="offset" />
          </mxGeometry>
        </mxCell>
        <mxCell id="9iDccagzdrMHLPE6jfmN-44" value="0,n" style="edgeLabel;html=1;align=center;verticalAlign=middle;resizable=0;points=[];fontFamily=Helvetica;fontSize=11;fontColor=default;labelBackgroundColor=default;" vertex="1" connectable="0" parent="9iDccagzdrMHLPE6jfmN-17">
          <mxGeometry x="-0.8756" y="-2" relative="1" as="geometry">
            <mxPoint as="offset" />
          </mxGeometry>
        </mxCell>
        <mxCell id="9iDccagzdrMHLPE6jfmN-33" style="edgeStyle=none;shape=connector;rounded=0;orthogonalLoop=1;jettySize=auto;html=1;strokeColor=default;align=center;verticalAlign=middle;fontFamily=Helvetica;fontSize=11;fontColor=default;labelBackgroundColor=default;endArrow=none;endFill=0;" edge="1" parent="1" source="qxAZUziXXPFpN-YLYpxu-57" target="9iDccagzdrMHLPE6jfmN-32">
          <mxGeometry relative="1" as="geometry" />
        </mxCell>
        <mxCell id="9iDccagzdrMHLPE6jfmN-37" style="edgeStyle=none;shape=connector;rounded=0;orthogonalLoop=1;jettySize=auto;html=1;strokeColor=default;align=center;verticalAlign=middle;fontFamily=Helvetica;fontSize=11;fontColor=default;labelBackgroundColor=default;endArrow=none;endFill=0;" edge="1" parent="1" source="qxAZUziXXPFpN-YLYpxu-57" target="9iDccagzdrMHLPE6jfmN-36">
          <mxGeometry relative="1" as="geometry" />
        </mxCell>
        <mxCell id="9iDccagzdrMHLPE6jfmN-145" style="edgeStyle=none;shape=connector;rounded=0;orthogonalLoop=1;jettySize=auto;html=1;strokeColor=default;align=center;verticalAlign=middle;fontFamily=Helvetica;fontSize=11;fontColor=default;labelBackgroundColor=default;endArrow=none;endFill=0;" edge="1" parent="1" source="9iDccagzdrMHLPE6jfmN-163" target="9iDccagzdrMHLPE6jfmN-144">
          <mxGeometry relative="1" as="geometry" />
        </mxCell>
        <mxCell id="9iDccagzdrMHLPE6jfmN-186" value="n" style="edgeLabel;html=1;align=center;verticalAlign=middle;resizable=0;points=[];fontFamily=Helvetica;fontSize=11;fontColor=default;labelBackgroundColor=default;" vertex="1" connectable="0" parent="9iDccagzdrMHLPE6jfmN-145">
          <mxGeometry x="0.8334" y="-1" relative="1" as="geometry">
            <mxPoint as="offset" />
          </mxGeometry>
        </mxCell>
        <mxCell id="9iDccagzdrMHLPE6jfmN-226" style="edgeStyle=none;shape=connector;rounded=0;orthogonalLoop=1;jettySize=auto;html=1;strokeColor=default;align=center;verticalAlign=middle;fontFamily=Helvetica;fontSize=11;fontColor=default;labelBackgroundColor=default;endArrow=none;endFill=0;" edge="1" parent="1" source="9iDccagzdrMHLPE6jfmN-227" target="9iDccagzdrMHLPE6jfmN-225">
          <mxGeometry relative="1" as="geometry" />
        </mxCell>
        <mxCell id="9iDccagzdrMHLPE6jfmN-230" value="0,n" style="edgeLabel;html=1;align=center;verticalAlign=middle;resizable=0;points=[];fontFamily=Helvetica;fontSize=11;fontColor=default;labelBackgroundColor=default;" vertex="1" connectable="0" parent="9iDccagzdrMHLPE6jfmN-226">
          <mxGeometry x="0.3694" relative="1" as="geometry">
            <mxPoint x="-2" y="-106" as="offset" />
          </mxGeometry>
        </mxCell>
        <mxCell id="qxAZUziXXPFpN-YLYpxu-57" value="&lt;span style=&quot;font-size: 12px; background-color: rgb(251, 251, 251);&quot;&gt;Game&lt;/span&gt;" style="rounded=1;whiteSpace=wrap;html=1;fontFamily=Helvetica;fontSize=11;fontColor=default;labelBackgroundColor=default;" parent="1" vertex="1">
          <mxGeometry x="150" y="362.5" width="100" height="50" as="geometry" />
        </mxCell>
        <mxCell id="qxAZUziXXPFpN-YLYpxu-60" value="" style="edgeStyle=none;shape=connector;rounded=0;orthogonalLoop=1;jettySize=auto;html=1;strokeColor=default;align=center;verticalAlign=middle;fontFamily=Helvetica;fontSize=11;fontColor=default;labelBackgroundColor=default;endArrow=none;endFill=0;" parent="1" source="qxAZUziXXPFpN-YLYpxu-51" target="qxAZUziXXPFpN-YLYpxu-59" edge="1">
          <mxGeometry relative="1" as="geometry">
            <mxPoint x="250" y="630" as="sourcePoint" />
            <mxPoint x="390" y="630" as="targetPoint" />
          </mxGeometry>
        </mxCell>
        <mxCell id="qxAZUziXXPFpN-YLYpxu-63" value="n" style="edgeLabel;html=1;align=center;verticalAlign=middle;resizable=0;points=[];fontFamily=Helvetica;fontSize=11;fontColor=default;labelBackgroundColor=default;" parent="qxAZUziXXPFpN-YLYpxu-60" vertex="1" connectable="0">
          <mxGeometry x="-0.4" relative="1" as="geometry">
            <mxPoint as="offset" />
          </mxGeometry>
        </mxCell>
        <mxCell id="qxAZUziXXPFpN-YLYpxu-59" value="Of" style="rhombus;whiteSpace=wrap;html=1;fontFamily=Helvetica;fontSize=11;fontColor=default;labelBackgroundColor=default;" parent="1" vertex="1">
          <mxGeometry x="174" y="542.5" width="50" height="50" as="geometry" />
        </mxCell>
        <mxCell id="qxAZUziXXPFpN-YLYpxu-65" style="edgeStyle=none;shape=connector;rounded=0;orthogonalLoop=1;jettySize=auto;html=1;strokeColor=default;align=center;verticalAlign=middle;fontFamily=Helvetica;fontSize=11;fontColor=default;labelBackgroundColor=default;endArrow=none;endFill=0;" parent="1" source="qxAZUziXXPFpN-YLYpxu-64" target="qxAZUziXXPFpN-YLYpxu-35" edge="1">
          <mxGeometry relative="1" as="geometry" />
        </mxCell>
        <mxCell id="qxAZUziXXPFpN-YLYpxu-64" value="Bought library&amp;nbsp;Id" style="ellipse;whiteSpace=wrap;html=1;fontStyle=5" parent="1" vertex="1">
          <mxGeometry x="-145" y="680" width="90" height="50" as="geometry" />
        </mxCell>
        <mxCell id="9iDccagzdrMHLPE6jfmN-4" style="edgeStyle=none;shape=connector;rounded=0;orthogonalLoop=1;jettySize=auto;html=1;strokeColor=default;align=center;verticalAlign=middle;fontFamily=Helvetica;fontSize=11;fontColor=default;labelBackgroundColor=default;endArrow=none;endFill=0;" edge="1" parent="1" source="9iDccagzdrMHLPE6jfmN-54" target="qxAZUziXXPFpN-YLYpxu-57">
          <mxGeometry relative="1" as="geometry" />
        </mxCell>
        <mxCell id="9iDccagzdrMHLPE6jfmN-3" value="Game Id" style="ellipse;whiteSpace=wrap;html=1;fontStyle=5" vertex="1" parent="1">
          <mxGeometry x="370" y="280" width="90" height="50" as="geometry" />
        </mxCell>
        <mxCell id="9iDccagzdrMHLPE6jfmN-6" style="edgeStyle=none;shape=connector;rounded=0;orthogonalLoop=1;jettySize=auto;html=1;strokeColor=default;align=center;verticalAlign=middle;fontFamily=Helvetica;fontSize=11;fontColor=default;labelBackgroundColor=default;endArrow=none;endFill=0;" edge="1" parent="1" source="9iDccagzdrMHLPE6jfmN-5" target="qxAZUziXXPFpN-YLYpxu-51">
          <mxGeometry relative="1" as="geometry" />
        </mxCell>
        <mxCell id="9iDccagzdrMHLPE6jfmN-5" value="Game Id" style="ellipse;whiteSpace=wrap;html=1;fontStyle=5" vertex="1" parent="1">
          <mxGeometry x="154" y="803.75" width="90" height="50" as="geometry" />
        </mxCell>
        <mxCell id="9iDccagzdrMHLPE6jfmN-14" style="edgeStyle=none;shape=connector;rounded=0;orthogonalLoop=1;jettySize=auto;html=1;strokeColor=default;align=center;verticalAlign=middle;fontFamily=Helvetica;fontSize=11;fontColor=default;labelBackgroundColor=default;endArrow=none;endFill=0;" edge="1" parent="1" source="9iDccagzdrMHLPE6jfmN-12" target="qxAZUziXXPFpN-YLYpxu-51">
          <mxGeometry relative="1" as="geometry" />
        </mxCell>
        <mxCell id="9iDccagzdrMHLPE6jfmN-12" value="Game Id" style="ellipse;whiteSpace=wrap;html=1;fontStyle=5" vertex="1" parent="1">
          <mxGeometry x="210" y="680" width="90" height="50" as="geometry" />
        </mxCell>
        <mxCell id="9iDccagzdrMHLPE6jfmN-21" style="edgeStyle=none;shape=connector;rounded=0;orthogonalLoop=1;jettySize=auto;html=1;strokeColor=default;align=center;verticalAlign=middle;fontFamily=Helvetica;fontSize=11;fontColor=default;labelBackgroundColor=default;endArrow=none;endFill=0;" edge="1" parent="1" source="9iDccagzdrMHLPE6jfmN-22" target="qxAZUziXXPFpN-YLYpxu-16">
          <mxGeometry relative="1" as="geometry" />
        </mxCell>
        <mxCell id="9iDccagzdrMHLPE6jfmN-24" value="1" style="edgeLabel;html=1;align=center;verticalAlign=middle;resizable=0;points=[];fontFamily=Helvetica;fontSize=11;fontColor=default;labelBackgroundColor=default;" vertex="1" connectable="0" parent="9iDccagzdrMHLPE6jfmN-21">
          <mxGeometry x="0.8281" y="-1" relative="1" as="geometry">
            <mxPoint as="offset" />
          </mxGeometry>
        </mxCell>
        <mxCell id="9iDccagzdrMHLPE6jfmN-16" value="&lt;span style=&quot;font-size: 12px; background-color: rgb(251, 251, 251);&quot;&gt;Developer owning library&lt;/span&gt;" style="rounded=1;whiteSpace=wrap;html=1;fontFamily=Helvetica;fontSize=11;fontColor=default;labelBackgroundColor=default;" vertex="1" parent="1">
          <mxGeometry x="-475" y="362.5" width="100" height="50" as="geometry" />
        </mxCell>
        <mxCell id="9iDccagzdrMHLPE6jfmN-20" value="" style="edgeStyle=none;shape=connector;rounded=0;orthogonalLoop=1;jettySize=auto;html=1;strokeColor=default;align=center;verticalAlign=middle;fontFamily=Helvetica;fontSize=11;fontColor=default;labelBackgroundColor=default;endArrow=none;endFill=0;" edge="1" parent="1" source="qxAZUziXXPFpN-YLYpxu-57" target="9iDccagzdrMHLPE6jfmN-18">
          <mxGeometry relative="1" as="geometry">
            <mxPoint x="250" y="387.5" as="sourcePoint" />
            <mxPoint x="440" y="385.5" as="targetPoint" />
          </mxGeometry>
        </mxCell>
        <mxCell id="9iDccagzdrMHLPE6jfmN-39" value="1" style="edgeLabel;html=1;align=center;verticalAlign=middle;resizable=0;points=[];fontFamily=Helvetica;fontSize=11;fontColor=default;labelBackgroundColor=default;" vertex="1" connectable="0" parent="9iDccagzdrMHLPE6jfmN-20">
          <mxGeometry x="-0.5592" y="-1" relative="1" as="geometry">
            <mxPoint as="offset" />
          </mxGeometry>
        </mxCell>
        <mxCell id="9iDccagzdrMHLPE6jfmN-18" value="Of" style="rhombus;whiteSpace=wrap;html=1;fontFamily=Helvetica;fontSize=11;fontColor=default;labelBackgroundColor=default;" vertex="1" parent="1">
          <mxGeometry x="34" y="362.5" width="50" height="50" as="geometry" />
        </mxCell>
        <mxCell id="9iDccagzdrMHLPE6jfmN-23" value="" style="edgeStyle=none;shape=connector;rounded=0;orthogonalLoop=1;jettySize=auto;html=1;strokeColor=default;align=center;verticalAlign=middle;fontFamily=Helvetica;fontSize=11;fontColor=default;labelBackgroundColor=default;endArrow=none;endFill=0;" edge="1" parent="1" source="9iDccagzdrMHLPE6jfmN-16" target="9iDccagzdrMHLPE6jfmN-22">
          <mxGeometry relative="1" as="geometry">
            <mxPoint x="-143" y="413" as="sourcePoint" />
            <mxPoint x="-392" y="603" as="targetPoint" />
          </mxGeometry>
        </mxCell>
        <mxCell id="9iDccagzdrMHLPE6jfmN-25" value="0,1" style="edgeLabel;html=1;align=center;verticalAlign=middle;resizable=0;points=[];fontFamily=Helvetica;fontSize=11;fontColor=default;labelBackgroundColor=default;" vertex="1" connectable="0" parent="9iDccagzdrMHLPE6jfmN-23">
          <mxGeometry x="-0.7747" y="1" relative="1" as="geometry">
            <mxPoint x="-5" y="10" as="offset" />
          </mxGeometry>
        </mxCell>
        <mxCell id="9iDccagzdrMHLPE6jfmN-22" value="Has" style="rhombus;whiteSpace=wrap;html=1;fontFamily=Helvetica;fontSize=11;fontColor=default;labelBackgroundColor=default;" vertex="1" parent="1">
          <mxGeometry x="-450" y="470" width="50" height="50" as="geometry" />
        </mxCell>
        <mxCell id="9iDccagzdrMHLPE6jfmN-27" style="edgeStyle=none;shape=connector;rounded=0;orthogonalLoop=1;jettySize=auto;html=1;strokeColor=default;align=center;verticalAlign=middle;fontFamily=Helvetica;fontSize=11;fontColor=default;labelBackgroundColor=default;endArrow=none;endFill=0;" edge="1" parent="1" source="9iDccagzdrMHLPE6jfmN-26" target="9iDccagzdrMHLPE6jfmN-16">
          <mxGeometry relative="1" as="geometry" />
        </mxCell>
        <mxCell id="9iDccagzdrMHLPE6jfmN-26" value="Developer owning library&amp;nbsp;Id" style="ellipse;whiteSpace=wrap;html=1;fontStyle=5" vertex="1" parent="1">
          <mxGeometry x="-510" y="300" width="90" height="50" as="geometry" />
        </mxCell>
        <mxCell id="9iDccagzdrMHLPE6jfmN-29" style="edgeStyle=none;shape=connector;rounded=0;orthogonalLoop=1;jettySize=auto;html=1;strokeColor=default;align=center;verticalAlign=middle;fontFamily=Helvetica;fontSize=11;fontColor=default;labelBackgroundColor=default;endArrow=none;endFill=0;" edge="1" parent="1" source="9iDccagzdrMHLPE6jfmN-28" target="9iDccagzdrMHLPE6jfmN-16">
          <mxGeometry relative="1" as="geometry" />
        </mxCell>
        <mxCell id="9iDccagzdrMHLPE6jfmN-28" value="Open since" style="ellipse;whiteSpace=wrap;html=1;" vertex="1" parent="1">
          <mxGeometry x="-410" y="300" width="90" height="50" as="geometry" />
        </mxCell>
        <mxCell id="9iDccagzdrMHLPE6jfmN-31" style="edgeStyle=none;shape=connector;rounded=0;orthogonalLoop=1;jettySize=auto;html=1;strokeColor=default;align=center;verticalAlign=middle;fontFamily=Helvetica;fontSize=11;fontColor=default;labelBackgroundColor=default;endArrow=none;endFill=0;" edge="1" parent="1" source="9iDccagzdrMHLPE6jfmN-30" target="qxAZUziXXPFpN-YLYpxu-57">
          <mxGeometry relative="1" as="geometry" />
        </mxCell>
        <mxCell id="9iDccagzdrMHLPE6jfmN-30" value="Game name" style="ellipse;whiteSpace=wrap;html=1;" vertex="1" parent="1">
          <mxGeometry x="230" y="230" width="90" height="50" as="geometry" />
        </mxCell>
        <mxCell id="9iDccagzdrMHLPE6jfmN-32" value="Game description" style="ellipse;whiteSpace=wrap;html=1;" vertex="1" parent="1">
          <mxGeometry x="280" y="492.5" width="90" height="50" as="geometry" />
        </mxCell>
        <mxCell id="9iDccagzdrMHLPE6jfmN-35" style="edgeStyle=none;shape=connector;rounded=0;orthogonalLoop=1;jettySize=auto;html=1;strokeColor=default;align=center;verticalAlign=middle;fontFamily=Helvetica;fontSize=11;fontColor=default;labelBackgroundColor=default;endArrow=none;endFill=0;" edge="1" parent="1" source="9iDccagzdrMHLPE6jfmN-34" target="qxAZUziXXPFpN-YLYpxu-57">
          <mxGeometry relative="1" as="geometry" />
        </mxCell>
        <mxCell id="9iDccagzdrMHLPE6jfmN-34" value="Releast date" style="ellipse;whiteSpace=wrap;html=1;" vertex="1" parent="1">
          <mxGeometry x="330" y="230" width="90" height="50" as="geometry" />
        </mxCell>
        <mxCell id="9iDccagzdrMHLPE6jfmN-36" value="Game Base Price" style="ellipse;whiteSpace=wrap;html=1;" vertex="1" parent="1">
          <mxGeometry x="59" y="422.5" width="90" height="50" as="geometry" />
        </mxCell>
        <mxCell id="9iDccagzdrMHLPE6jfmN-41" value="" style="edgeStyle=none;shape=connector;rounded=0;orthogonalLoop=1;jettySize=auto;html=1;strokeColor=default;align=center;verticalAlign=middle;fontFamily=Helvetica;fontSize=11;fontColor=default;labelBackgroundColor=default;endArrow=none;endFill=0;" edge="1" parent="1" source="9iDccagzdrMHLPE6jfmN-18" target="9iDccagzdrMHLPE6jfmN-40">
          <mxGeometry relative="1" as="geometry">
            <mxPoint x="40" y="388" as="sourcePoint" />
            <mxPoint x="-375" y="388" as="targetPoint" />
          </mxGeometry>
        </mxCell>
        <mxCell id="9iDccagzdrMHLPE6jfmN-45" value="n" style="edgeLabel;html=1;align=center;verticalAlign=middle;resizable=0;points=[];fontFamily=Helvetica;fontSize=11;fontColor=default;labelBackgroundColor=default;" vertex="1" connectable="0" parent="9iDccagzdrMHLPE6jfmN-41">
          <mxGeometry x="0.7556" y="1" relative="1" as="geometry">
            <mxPoint y="-1" as="offset" />
          </mxGeometry>
        </mxCell>
        <mxCell id="9iDccagzdrMHLPE6jfmN-51" style="edgeStyle=none;shape=connector;rounded=0;orthogonalLoop=1;jettySize=auto;html=1;strokeColor=default;align=center;verticalAlign=middle;fontFamily=Helvetica;fontSize=11;fontColor=default;labelBackgroundColor=default;endArrow=none;endFill=0;" edge="1" parent="1" source="9iDccagzdrMHLPE6jfmN-40" target="9iDccagzdrMHLPE6jfmN-50">
          <mxGeometry relative="1" as="geometry" />
        </mxCell>
        <mxCell id="9iDccagzdrMHLPE6jfmN-40" value="&lt;span style=&quot;font-size: 12px; background-color: rgb(251, 251, 251);&quot;&gt;Developer owning library-&lt;/span&gt;&lt;span style=&quot;font-size: 12px; background-color: rgb(251, 251, 251);&quot;&gt;Game&lt;/span&gt;" style="rounded=1;whiteSpace=wrap;html=1;fontFamily=Helvetica;fontSize=11;fontColor=default;labelBackgroundColor=default;" vertex="1" parent="1">
          <mxGeometry x="-150" y="362.5" width="100" height="50" as="geometry" />
        </mxCell>
        <mxCell id="9iDccagzdrMHLPE6jfmN-43" value="Has" style="rhombus;whiteSpace=wrap;html=1;fontFamily=Helvetica;fontSize=11;fontColor=default;labelBackgroundColor=default;" vertex="1" parent="1">
          <mxGeometry x="-283" y="362.5" width="50" height="50" as="geometry" />
        </mxCell>
        <mxCell id="9iDccagzdrMHLPE6jfmN-47" style="edgeStyle=none;shape=connector;rounded=0;orthogonalLoop=1;jettySize=auto;html=1;strokeColor=default;align=center;verticalAlign=middle;fontFamily=Helvetica;fontSize=11;fontColor=default;labelBackgroundColor=default;endArrow=none;endFill=0;" edge="1" parent="1" source="9iDccagzdrMHLPE6jfmN-46" target="9iDccagzdrMHLPE6jfmN-40">
          <mxGeometry relative="1" as="geometry" />
        </mxCell>
        <mxCell id="9iDccagzdrMHLPE6jfmN-46" value="Developer owning library&amp;nbsp;Id" style="ellipse;whiteSpace=wrap;html=1;fontStyle=5" vertex="1" parent="1">
          <mxGeometry x="-190" y="300" width="90" height="50" as="geometry" />
        </mxCell>
        <mxCell id="9iDccagzdrMHLPE6jfmN-49" style="edgeStyle=none;shape=connector;rounded=0;orthogonalLoop=1;jettySize=auto;html=1;strokeColor=default;align=center;verticalAlign=middle;fontFamily=Helvetica;fontSize=11;fontColor=default;labelBackgroundColor=default;endArrow=none;endFill=0;" edge="1" parent="1" source="9iDccagzdrMHLPE6jfmN-48" target="9iDccagzdrMHLPE6jfmN-40">
          <mxGeometry relative="1" as="geometry" />
        </mxCell>
        <mxCell id="9iDccagzdrMHLPE6jfmN-48" value="Game Id" style="ellipse;whiteSpace=wrap;html=1;fontStyle=5" vertex="1" parent="1">
          <mxGeometry x="-90" y="300" width="90" height="50" as="geometry" />
        </mxCell>
        <mxCell id="9iDccagzdrMHLPE6jfmN-50" value="Submit date" style="ellipse;whiteSpace=wrap;html=1;" vertex="1" parent="1">
          <mxGeometry x="-145" y="422.5" width="90" height="50" as="geometry" />
        </mxCell>
        <mxCell id="9iDccagzdrMHLPE6jfmN-53" style="edgeStyle=none;shape=connector;rounded=0;orthogonalLoop=1;jettySize=auto;html=1;strokeColor=default;align=center;verticalAlign=middle;fontFamily=Helvetica;fontSize=11;fontColor=default;labelBackgroundColor=default;endArrow=none;endFill=0;" edge="1" parent="1" source="9iDccagzdrMHLPE6jfmN-54" target="qxAZUziXXPFpN-YLYpxu-57">
          <mxGeometry relative="1" as="geometry" />
        </mxCell>
        <mxCell id="9iDccagzdrMHLPE6jfmN-73" value="1" style="edgeLabel;html=1;align=center;verticalAlign=middle;resizable=0;points=[];fontFamily=Helvetica;fontSize=11;fontColor=default;labelBackgroundColor=default;" vertex="1" connectable="0" parent="9iDccagzdrMHLPE6jfmN-53">
          <mxGeometry x="0.7219" y="1" relative="1" as="geometry">
            <mxPoint as="offset" />
          </mxGeometry>
        </mxCell>
        <mxCell id="9iDccagzdrMHLPE6jfmN-57" style="edgeStyle=none;shape=connector;rounded=0;orthogonalLoop=1;jettySize=auto;html=1;strokeColor=default;align=center;verticalAlign=middle;fontFamily=Helvetica;fontSize=11;fontColor=default;labelBackgroundColor=default;endArrow=none;endFill=0;" edge="1" parent="1" source="9iDccagzdrMHLPE6jfmN-58" target="9iDccagzdrMHLPE6jfmN-55">
          <mxGeometry relative="1" as="geometry" />
        </mxCell>
        <mxCell id="9iDccagzdrMHLPE6jfmN-76" value="1" style="edgeLabel;html=1;align=center;verticalAlign=middle;resizable=0;points=[];fontFamily=Helvetica;fontSize=11;fontColor=default;labelBackgroundColor=default;" vertex="1" connectable="0" parent="9iDccagzdrMHLPE6jfmN-57">
          <mxGeometry x="0.4508" y="1" relative="1" as="geometry">
            <mxPoint as="offset" />
          </mxGeometry>
        </mxCell>
        <mxCell id="9iDccagzdrMHLPE6jfmN-66" style="edgeStyle=none;shape=connector;rounded=0;orthogonalLoop=1;jettySize=auto;html=1;strokeColor=default;align=center;verticalAlign=middle;fontFamily=Helvetica;fontSize=11;fontColor=default;labelBackgroundColor=default;endArrow=none;endFill=0;" edge="1" parent="1" source="9iDccagzdrMHLPE6jfmN-52" target="9iDccagzdrMHLPE6jfmN-65">
          <mxGeometry relative="1" as="geometry" />
        </mxCell>
        <mxCell id="9iDccagzdrMHLPE6jfmN-52" value="&lt;span style=&quot;font-size: 12px; background-color: rgb(251, 251, 251);&quot;&gt;Category-Game&lt;/span&gt;" style="rounded=1;whiteSpace=wrap;html=1;fontFamily=Helvetica;fontSize=11;fontColor=default;labelBackgroundColor=default;" vertex="1" parent="1">
          <mxGeometry x="419" y="360" width="100" height="50" as="geometry" />
        </mxCell>
        <mxCell id="9iDccagzdrMHLPE6jfmN-70" style="edgeStyle=none;shape=connector;rounded=0;orthogonalLoop=1;jettySize=auto;html=1;strokeColor=default;align=center;verticalAlign=middle;fontFamily=Helvetica;fontSize=11;fontColor=default;labelBackgroundColor=default;endArrow=none;endFill=0;" edge="1" parent="1" source="9iDccagzdrMHLPE6jfmN-55" target="9iDccagzdrMHLPE6jfmN-69">
          <mxGeometry relative="1" as="geometry" />
        </mxCell>
        <mxCell id="9iDccagzdrMHLPE6jfmN-72" style="edgeStyle=none;shape=connector;rounded=0;orthogonalLoop=1;jettySize=auto;html=1;strokeColor=default;align=center;verticalAlign=middle;fontFamily=Helvetica;fontSize=11;fontColor=default;labelBackgroundColor=default;endArrow=none;endFill=0;" edge="1" parent="1" source="9iDccagzdrMHLPE6jfmN-55" target="9iDccagzdrMHLPE6jfmN-71">
          <mxGeometry relative="1" as="geometry" />
        </mxCell>
        <mxCell id="9iDccagzdrMHLPE6jfmN-55" value="&lt;span style=&quot;font-size: 12px; background-color: rgb(251, 251, 251);&quot;&gt;Category&lt;/span&gt;" style="rounded=1;whiteSpace=wrap;html=1;fontFamily=Helvetica;fontSize=11;fontColor=default;labelBackgroundColor=default;" vertex="1" parent="1">
          <mxGeometry x="639" y="220" width="100" height="50" as="geometry" />
        </mxCell>
        <mxCell id="9iDccagzdrMHLPE6jfmN-56" value="" style="edgeStyle=none;shape=connector;rounded=0;orthogonalLoop=1;jettySize=auto;html=1;strokeColor=default;align=center;verticalAlign=middle;fontFamily=Helvetica;fontSize=11;fontColor=default;labelBackgroundColor=default;endArrow=none;endFill=0;" edge="1" parent="1" source="9iDccagzdrMHLPE6jfmN-52" target="9iDccagzdrMHLPE6jfmN-54">
          <mxGeometry relative="1" as="geometry">
            <mxPoint x="199" y="71.67" as="sourcePoint" />
            <mxPoint x="198.99999999999977" y="201.67000000000002" as="targetPoint" />
          </mxGeometry>
        </mxCell>
        <mxCell id="9iDccagzdrMHLPE6jfmN-74" value="n" style="edgeLabel;html=1;align=center;verticalAlign=middle;resizable=0;points=[];fontFamily=Helvetica;fontSize=11;fontColor=default;labelBackgroundColor=default;" vertex="1" connectable="0" parent="9iDccagzdrMHLPE6jfmN-56">
          <mxGeometry x="-0.6444" y="-1" relative="1" as="geometry">
            <mxPoint as="offset" />
          </mxGeometry>
        </mxCell>
        <mxCell id="9iDccagzdrMHLPE6jfmN-59" value="" style="edgeStyle=none;shape=connector;rounded=0;orthogonalLoop=1;jettySize=auto;html=1;strokeColor=default;align=center;verticalAlign=middle;fontFamily=Helvetica;fontSize=11;fontColor=default;labelBackgroundColor=default;endArrow=none;endFill=0;" edge="1" parent="1" source="9iDccagzdrMHLPE6jfmN-52" target="9iDccagzdrMHLPE6jfmN-58">
          <mxGeometry relative="1" as="geometry">
            <mxPoint x="64" y="165" as="sourcePoint" />
            <mxPoint x="-135" y="165" as="targetPoint" />
          </mxGeometry>
        </mxCell>
        <mxCell id="9iDccagzdrMHLPE6jfmN-75" value="n" style="edgeLabel;html=1;align=center;verticalAlign=middle;resizable=0;points=[];fontFamily=Helvetica;fontSize=11;fontColor=default;labelBackgroundColor=default;" vertex="1" connectable="0" parent="9iDccagzdrMHLPE6jfmN-59">
          <mxGeometry x="-0.6118" y="1" relative="1" as="geometry">
            <mxPoint as="offset" />
          </mxGeometry>
        </mxCell>
        <mxCell id="9iDccagzdrMHLPE6jfmN-58" value="Of" style="rhombus;whiteSpace=wrap;html=1;fontFamily=Helvetica;fontSize=11;fontColor=default;labelBackgroundColor=default;" vertex="1" parent="1">
          <mxGeometry x="664" y="360" width="50" height="50" as="geometry" />
        </mxCell>
        <mxCell id="9iDccagzdrMHLPE6jfmN-61" style="edgeStyle=none;shape=connector;rounded=0;orthogonalLoop=1;jettySize=auto;html=1;strokeColor=default;align=center;verticalAlign=middle;fontFamily=Helvetica;fontSize=11;fontColor=default;labelBackgroundColor=default;endArrow=none;endFill=0;" edge="1" parent="1" source="9iDccagzdrMHLPE6jfmN-60" target="9iDccagzdrMHLPE6jfmN-55">
          <mxGeometry relative="1" as="geometry" />
        </mxCell>
        <mxCell id="9iDccagzdrMHLPE6jfmN-60" value="Category Id" style="ellipse;whiteSpace=wrap;html=1;fontStyle=5" vertex="1" parent="1">
          <mxGeometry x="640" y="160" width="90" height="50" as="geometry" />
        </mxCell>
        <mxCell id="9iDccagzdrMHLPE6jfmN-64" style="edgeStyle=none;shape=connector;rounded=0;orthogonalLoop=1;jettySize=auto;html=1;strokeColor=default;align=center;verticalAlign=middle;fontFamily=Helvetica;fontSize=11;fontColor=default;labelBackgroundColor=default;endArrow=none;endFill=0;" edge="1" parent="1" source="9iDccagzdrMHLPE6jfmN-63" target="9iDccagzdrMHLPE6jfmN-52">
          <mxGeometry relative="1" as="geometry" />
        </mxCell>
        <mxCell id="9iDccagzdrMHLPE6jfmN-63" value="Category Id" style="ellipse;whiteSpace=wrap;html=1;fontStyle=5" vertex="1" parent="1">
          <mxGeometry x="500" y="420" width="90" height="50" as="geometry" />
        </mxCell>
        <mxCell id="9iDccagzdrMHLPE6jfmN-65" value="Game Id" style="ellipse;whiteSpace=wrap;html=1;fontStyle=5" vertex="1" parent="1">
          <mxGeometry x="530" y="360" width="90" height="50" as="geometry" />
        </mxCell>
        <mxCell id="9iDccagzdrMHLPE6jfmN-69" value="Category name" style="ellipse;whiteSpace=wrap;html=1;" vertex="1" parent="1">
          <mxGeometry x="730" y="270" width="90" height="50" as="geometry" />
        </mxCell>
        <mxCell id="9iDccagzdrMHLPE6jfmN-71" value="Category description" style="ellipse;whiteSpace=wrap;html=1;" vertex="1" parent="1">
          <mxGeometry x="540" y="240" width="90" height="50" as="geometry" />
        </mxCell>
        <mxCell id="9iDccagzdrMHLPE6jfmN-93" style="edgeStyle=none;shape=connector;rounded=0;orthogonalLoop=1;jettySize=auto;html=1;strokeColor=default;align=center;verticalAlign=middle;fontFamily=Helvetica;fontSize=11;fontColor=default;labelBackgroundColor=default;endArrow=none;endFill=0;" edge="1" parent="1" source="9iDccagzdrMHLPE6jfmN-94" target="qxAZUziXXPFpN-YLYpxu-57">
          <mxGeometry relative="1" as="geometry" />
        </mxCell>
        <mxCell id="9iDccagzdrMHLPE6jfmN-114" value="1" style="edgeLabel;html=1;align=center;verticalAlign=middle;resizable=0;points=[];fontFamily=Helvetica;fontSize=11;fontColor=default;labelBackgroundColor=default;" vertex="1" connectable="0" parent="9iDccagzdrMHLPE6jfmN-93">
          <mxGeometry x="0.6575" y="-1" relative="1" as="geometry">
            <mxPoint as="offset" />
          </mxGeometry>
        </mxCell>
        <mxCell id="9iDccagzdrMHLPE6jfmN-104" style="edgeStyle=none;shape=connector;rounded=0;orthogonalLoop=1;jettySize=auto;html=1;strokeColor=default;align=center;verticalAlign=middle;fontFamily=Helvetica;fontSize=11;fontColor=default;labelBackgroundColor=default;endArrow=none;endFill=0;" edge="1" parent="1" source="9iDccagzdrMHLPE6jfmN-77" target="9iDccagzdrMHLPE6jfmN-103">
          <mxGeometry relative="1" as="geometry" />
        </mxCell>
        <mxCell id="9iDccagzdrMHLPE6jfmN-77" value="&lt;span style=&quot;font-size: 12px; background-color: rgb(251, 251, 251);&quot;&gt;Publisher&lt;/span&gt;&lt;span style=&quot;font-size: 12px; background-color: rgb(251, 251, 251);&quot;&gt;&amp;nbsp;owning library-&lt;/span&gt;&lt;span style=&quot;font-size: 12px; background-color: rgb(251, 251, 251);&quot;&gt;Game&lt;/span&gt;" style="rounded=1;whiteSpace=wrap;html=1;fontFamily=Helvetica;fontSize=11;fontColor=default;labelBackgroundColor=default;" vertex="1" parent="1">
          <mxGeometry x="-5" y="602.5" width="100" height="50" as="geometry" />
        </mxCell>
        <mxCell id="9iDccagzdrMHLPE6jfmN-82" value="" style="edgeStyle=none;shape=connector;rounded=0;orthogonalLoop=1;jettySize=auto;html=1;strokeColor=default;align=center;verticalAlign=middle;fontFamily=Helvetica;fontSize=11;fontColor=default;labelBackgroundColor=default;endArrow=none;endFill=0;" edge="1" parent="1" source="qxAZUziXXPFpN-YLYpxu-16" target="9iDccagzdrMHLPE6jfmN-79">
          <mxGeometry relative="1" as="geometry">
            <mxPoint x="-375" y="628" as="sourcePoint" />
            <mxPoint x="9" y="628" as="targetPoint" />
          </mxGeometry>
        </mxCell>
        <mxCell id="9iDccagzdrMHLPE6jfmN-83" value="1" style="edgeLabel;html=1;align=center;verticalAlign=middle;resizable=0;points=[];fontFamily=Helvetica;fontSize=11;fontColor=default;labelBackgroundColor=default;" vertex="1" connectable="0" parent="9iDccagzdrMHLPE6jfmN-82">
          <mxGeometry x="-0.857" y="-1" relative="1" as="geometry">
            <mxPoint x="7" y="-1" as="offset" />
          </mxGeometry>
        </mxCell>
        <mxCell id="9iDccagzdrMHLPE6jfmN-79" value="Has" style="rhombus;whiteSpace=wrap;html=1;fontFamily=Helvetica;fontSize=11;fontColor=default;labelBackgroundColor=default;" vertex="1" parent="1">
          <mxGeometry x="-333" y="602.5" width="50" height="50" as="geometry" />
        </mxCell>
        <mxCell id="9iDccagzdrMHLPE6jfmN-84" value="" style="edgeStyle=none;shape=connector;rounded=0;orthogonalLoop=1;jettySize=auto;html=1;strokeColor=default;align=center;verticalAlign=middle;fontFamily=Helvetica;fontSize=11;fontColor=default;labelBackgroundColor=default;endArrow=none;endFill=0;" edge="1" parent="1" source="9iDccagzdrMHLPE6jfmN-79" target="9iDccagzdrMHLPE6jfmN-81">
          <mxGeometry relative="1" as="geometry">
            <mxPoint x="-283" y="628" as="sourcePoint" />
            <mxPoint x="9" y="628" as="targetPoint" />
          </mxGeometry>
        </mxCell>
        <mxCell id="9iDccagzdrMHLPE6jfmN-85" value="0,1" style="edgeLabel;html=1;align=center;verticalAlign=middle;resizable=0;points=[];fontFamily=Helvetica;fontSize=11;fontColor=default;labelBackgroundColor=default;" vertex="1" connectable="0" parent="9iDccagzdrMHLPE6jfmN-84">
          <mxGeometry x="0.3636" y="1" relative="1" as="geometry">
            <mxPoint as="offset" />
          </mxGeometry>
        </mxCell>
        <mxCell id="9iDccagzdrMHLPE6jfmN-81" value="&lt;span style=&quot;font-size: 12px; background-color: rgb(251, 251, 251);&quot;&gt;Publisher owning library&lt;/span&gt;" style="rounded=1;whiteSpace=wrap;html=1;fontFamily=Helvetica;fontSize=11;fontColor=default;labelBackgroundColor=default;" vertex="1" parent="1">
          <mxGeometry x="-245" y="602.5" width="100" height="50" as="geometry" />
        </mxCell>
        <mxCell id="9iDccagzdrMHLPE6jfmN-90" value="" style="edgeStyle=none;shape=connector;rounded=0;orthogonalLoop=1;jettySize=auto;html=1;strokeColor=default;align=center;verticalAlign=middle;fontFamily=Helvetica;fontSize=11;fontColor=default;labelBackgroundColor=default;endArrow=none;endFill=0;" edge="1" parent="1" source="9iDccagzdrMHLPE6jfmN-81" target="9iDccagzdrMHLPE6jfmN-89">
          <mxGeometry relative="1" as="geometry">
            <mxPoint x="-145" y="628" as="sourcePoint" />
            <mxPoint x="-5" y="628" as="targetPoint" />
          </mxGeometry>
        </mxCell>
        <mxCell id="9iDccagzdrMHLPE6jfmN-91" value="1" style="edgeLabel;html=1;align=center;verticalAlign=middle;resizable=0;points=[];fontFamily=Helvetica;fontSize=11;fontColor=default;labelBackgroundColor=default;" vertex="1" connectable="0" parent="9iDccagzdrMHLPE6jfmN-90">
          <mxGeometry x="-0.8666" y="2" relative="1" as="geometry">
            <mxPoint x="12" y="2" as="offset" />
          </mxGeometry>
        </mxCell>
        <mxCell id="9iDccagzdrMHLPE6jfmN-89" value="Of" style="rhombus;whiteSpace=wrap;html=1;fontFamily=Helvetica;fontSize=11;fontColor=default;labelBackgroundColor=default;" vertex="1" parent="1">
          <mxGeometry x="-100" y="602.5" width="50" height="50" as="geometry" />
        </mxCell>
        <mxCell id="9iDccagzdrMHLPE6jfmN-95" value="" style="edgeStyle=none;shape=connector;rounded=0;orthogonalLoop=1;jettySize=auto;html=1;strokeColor=default;align=center;verticalAlign=middle;fontFamily=Helvetica;fontSize=11;fontColor=default;labelBackgroundColor=default;endArrow=none;endFill=0;" edge="1" parent="1" source="9iDccagzdrMHLPE6jfmN-77" target="9iDccagzdrMHLPE6jfmN-94">
          <mxGeometry relative="1" as="geometry">
            <mxPoint x="61" y="603" as="sourcePoint" />
            <mxPoint x="184" y="413" as="targetPoint" />
          </mxGeometry>
        </mxCell>
        <mxCell id="9iDccagzdrMHLPE6jfmN-96" value="n" style="edgeLabel;html=1;align=center;verticalAlign=middle;resizable=0;points=[];fontFamily=Helvetica;fontSize=11;fontColor=default;labelBackgroundColor=default;" vertex="1" connectable="0" parent="9iDccagzdrMHLPE6jfmN-95">
          <mxGeometry x="-0.6437" y="2" relative="1" as="geometry">
            <mxPoint x="1" as="offset" />
          </mxGeometry>
        </mxCell>
        <mxCell id="9iDccagzdrMHLPE6jfmN-94" value="Of" style="rhombus;whiteSpace=wrap;html=1;fontFamily=Helvetica;fontSize=11;fontColor=default;labelBackgroundColor=default;" vertex="1" parent="1">
          <mxGeometry x="104" y="481.25" width="50" height="50" as="geometry" />
        </mxCell>
        <mxCell id="9iDccagzdrMHLPE6jfmN-98" style="edgeStyle=none;shape=connector;rounded=0;orthogonalLoop=1;jettySize=auto;html=1;strokeColor=default;align=center;verticalAlign=middle;fontFamily=Helvetica;fontSize=11;fontColor=default;labelBackgroundColor=default;endArrow=none;endFill=0;" edge="1" parent="1" source="9iDccagzdrMHLPE6jfmN-97" target="9iDccagzdrMHLPE6jfmN-81">
          <mxGeometry relative="1" as="geometry" />
        </mxCell>
        <mxCell id="9iDccagzdrMHLPE6jfmN-97" value="Open since" style="ellipse;whiteSpace=wrap;html=1;" vertex="1" parent="1">
          <mxGeometry x="-290" y="542.5" width="90" height="50" as="geometry" />
        </mxCell>
        <mxCell id="9iDccagzdrMHLPE6jfmN-100" style="edgeStyle=none;shape=connector;rounded=0;orthogonalLoop=1;jettySize=auto;html=1;strokeColor=default;align=center;verticalAlign=middle;fontFamily=Helvetica;fontSize=11;fontColor=default;labelBackgroundColor=default;endArrow=none;endFill=0;" edge="1" parent="1" source="9iDccagzdrMHLPE6jfmN-99" target="9iDccagzdrMHLPE6jfmN-81">
          <mxGeometry relative="1" as="geometry" />
        </mxCell>
        <mxCell id="9iDccagzdrMHLPE6jfmN-99" value="Publisher&amp;nbsp;owning library&amp;nbsp;Id" style="ellipse;whiteSpace=wrap;html=1;fontStyle=5" vertex="1" parent="1">
          <mxGeometry x="-190" y="542.5" width="90" height="50" as="geometry" />
        </mxCell>
        <mxCell id="9iDccagzdrMHLPE6jfmN-102" style="edgeStyle=none;shape=connector;rounded=0;orthogonalLoop=1;jettySize=auto;html=1;strokeColor=default;align=center;verticalAlign=middle;fontFamily=Helvetica;fontSize=11;fontColor=default;labelBackgroundColor=default;endArrow=none;endFill=0;" edge="1" parent="1" source="9iDccagzdrMHLPE6jfmN-101" target="9iDccagzdrMHLPE6jfmN-77">
          <mxGeometry relative="1" as="geometry" />
        </mxCell>
        <mxCell id="9iDccagzdrMHLPE6jfmN-101" value="Publisher&amp;nbsp;&lt;div&gt;owning library&amp;nbsp;Id&lt;/div&gt;" style="ellipse;whiteSpace=wrap;html=1;fontStyle=5" vertex="1" parent="1">
          <mxGeometry x="-55" y="542.5" width="90" height="50" as="geometry" />
        </mxCell>
        <mxCell id="9iDccagzdrMHLPE6jfmN-103" value="Game Id" style="ellipse;whiteSpace=wrap;html=1;fontStyle=5" vertex="1" parent="1">
          <mxGeometry y="662.5" width="90" height="50" as="geometry" />
        </mxCell>
        <mxCell id="9iDccagzdrMHLPE6jfmN-112" value="Bought library&amp;nbsp;Id" style="ellipse;whiteSpace=wrap;html=1;fontStyle=4" vertex="1" parent="1">
          <mxGeometry x="-610" y="552.5" width="90" height="50" as="geometry" />
        </mxCell>
        <mxCell id="9iDccagzdrMHLPE6jfmN-116" style="edgeStyle=none;shape=connector;rounded=0;orthogonalLoop=1;jettySize=auto;html=1;strokeColor=default;align=center;verticalAlign=middle;fontFamily=Helvetica;fontSize=11;fontColor=default;labelBackgroundColor=default;endArrow=none;endFill=0;" edge="1" parent="1" source="9iDccagzdrMHLPE6jfmN-117" target="qxAZUziXXPFpN-YLYpxu-16">
          <mxGeometry relative="1" as="geometry" />
        </mxCell>
        <mxCell id="9iDccagzdrMHLPE6jfmN-195" value="1" style="edgeLabel;html=1;align=center;verticalAlign=middle;resizable=0;points=[];fontFamily=Helvetica;fontSize=11;fontColor=default;labelBackgroundColor=default;" vertex="1" connectable="0" parent="9iDccagzdrMHLPE6jfmN-116">
          <mxGeometry x="0.7179" y="-3" relative="1" as="geometry">
            <mxPoint as="offset" />
          </mxGeometry>
        </mxCell>
        <mxCell id="9iDccagzdrMHLPE6jfmN-122" style="edgeStyle=none;shape=connector;rounded=0;orthogonalLoop=1;jettySize=auto;html=1;strokeColor=default;align=center;verticalAlign=middle;fontFamily=Helvetica;fontSize=11;fontColor=default;labelBackgroundColor=default;endArrow=none;endFill=0;" edge="1" parent="1" source="9iDccagzdrMHLPE6jfmN-123" target="qxAZUziXXPFpN-YLYpxu-57">
          <mxGeometry relative="1" as="geometry" />
        </mxCell>
        <mxCell id="9iDccagzdrMHLPE6jfmN-133" value="1" style="edgeLabel;html=1;align=center;verticalAlign=middle;resizable=0;points=[];fontFamily=Helvetica;fontSize=11;fontColor=default;labelBackgroundColor=default;" vertex="1" connectable="0" parent="9iDccagzdrMHLPE6jfmN-122">
          <mxGeometry x="0.8173" relative="1" as="geometry">
            <mxPoint as="offset" />
          </mxGeometry>
        </mxCell>
        <mxCell id="9iDccagzdrMHLPE6jfmN-139" style="edgeStyle=none;shape=connector;rounded=0;orthogonalLoop=1;jettySize=auto;html=1;strokeColor=default;align=center;verticalAlign=middle;fontFamily=Helvetica;fontSize=11;fontColor=default;labelBackgroundColor=default;endArrow=none;endFill=0;" edge="1" parent="1" source="9iDccagzdrMHLPE6jfmN-115" target="9iDccagzdrMHLPE6jfmN-138">
          <mxGeometry relative="1" as="geometry" />
        </mxCell>
        <mxCell id="9iDccagzdrMHLPE6jfmN-115" value="&lt;span style=&quot;font-size: 12px; background-color: rgb(251, 251, 251);&quot;&gt;Transaction&lt;/span&gt;" style="rounded=1;whiteSpace=wrap;html=1;fontFamily=Helvetica;fontSize=11;fontColor=default;labelBackgroundColor=default;" vertex="1" parent="1">
          <mxGeometry x="-655" y="140" width="100" height="50" as="geometry" />
        </mxCell>
        <mxCell id="9iDccagzdrMHLPE6jfmN-119" value="" style="edgeStyle=none;shape=connector;rounded=0;orthogonalLoop=1;jettySize=auto;html=1;strokeColor=default;align=center;verticalAlign=middle;fontFamily=Helvetica;fontSize=11;fontColor=default;labelBackgroundColor=default;endArrow=none;endFill=0;" edge="1" parent="1" source="9iDccagzdrMHLPE6jfmN-115" target="9iDccagzdrMHLPE6jfmN-117">
          <mxGeometry relative="1" as="geometry">
            <mxPoint x="-734" y="413" as="sourcePoint" />
            <mxPoint x="-461" y="603" as="targetPoint" />
          </mxGeometry>
        </mxCell>
        <mxCell id="9iDccagzdrMHLPE6jfmN-196" value="0,n" style="edgeLabel;html=1;align=center;verticalAlign=middle;resizable=0;points=[];fontFamily=Helvetica;fontSize=11;fontColor=default;labelBackgroundColor=default;" vertex="1" connectable="0" parent="9iDccagzdrMHLPE6jfmN-119">
          <mxGeometry x="-0.9019" y="-2" relative="1" as="geometry">
            <mxPoint as="offset" />
          </mxGeometry>
        </mxCell>
        <mxCell id="9iDccagzdrMHLPE6jfmN-117" value="Pay" style="rhombus;whiteSpace=wrap;html=1;fontFamily=Helvetica;fontSize=11;fontColor=default;labelBackgroundColor=default;" vertex="1" parent="1">
          <mxGeometry x="-630" y="481.25" width="50" height="50" as="geometry" />
        </mxCell>
        <mxCell id="9iDccagzdrMHLPE6jfmN-121" style="edgeStyle=none;shape=connector;rounded=0;orthogonalLoop=1;jettySize=auto;html=1;strokeColor=default;align=center;verticalAlign=middle;fontFamily=Helvetica;fontSize=11;fontColor=default;labelBackgroundColor=default;endArrow=none;endFill=0;" edge="1" parent="1" source="9iDccagzdrMHLPE6jfmN-120" target="9iDccagzdrMHLPE6jfmN-115">
          <mxGeometry relative="1" as="geometry" />
        </mxCell>
        <mxCell id="9iDccagzdrMHLPE6jfmN-120" value="User Id" style="ellipse;whiteSpace=wrap;html=1;fontStyle=4" vertex="1" parent="1">
          <mxGeometry x="-710" y="201.67" width="90" height="50" as="geometry" />
        </mxCell>
        <mxCell id="9iDccagzdrMHLPE6jfmN-124" value="" style="edgeStyle=none;shape=connector;rounded=0;orthogonalLoop=1;jettySize=auto;html=1;strokeColor=default;align=center;verticalAlign=middle;fontFamily=Helvetica;fontSize=11;fontColor=default;labelBackgroundColor=default;endArrow=none;endFill=0;" edge="1" parent="1" source="9iDccagzdrMHLPE6jfmN-125" target="9iDccagzdrMHLPE6jfmN-123">
          <mxGeometry relative="1" as="geometry">
            <mxPoint x="-560" y="179" as="sourcePoint" />
            <mxPoint x="150" y="374" as="targetPoint" />
          </mxGeometry>
        </mxCell>
        <mxCell id="9iDccagzdrMHLPE6jfmN-132" value="n" style="edgeLabel;html=1;align=center;verticalAlign=middle;resizable=0;points=[];fontFamily=Helvetica;fontSize=11;fontColor=default;labelBackgroundColor=default;" vertex="1" connectable="0" parent="9iDccagzdrMHLPE6jfmN-124">
          <mxGeometry x="-0.9052" y="1" relative="1" as="geometry">
            <mxPoint x="10" y="1" as="offset" />
          </mxGeometry>
        </mxCell>
        <mxCell id="9iDccagzdrMHLPE6jfmN-123" value="Has" style="rhombus;whiteSpace=wrap;html=1;fontFamily=Helvetica;fontSize=11;fontColor=default;labelBackgroundColor=default;" vertex="1" parent="1">
          <mxGeometry x="-150" y="140" width="50" height="50" as="geometry" />
        </mxCell>
        <mxCell id="9iDccagzdrMHLPE6jfmN-126" value="" style="edgeStyle=none;shape=connector;rounded=0;orthogonalLoop=1;jettySize=auto;html=1;strokeColor=default;align=center;verticalAlign=middle;fontFamily=Helvetica;fontSize=11;fontColor=default;labelBackgroundColor=default;endArrow=none;endFill=0;" edge="1" parent="1" source="9iDccagzdrMHLPE6jfmN-127" target="9iDccagzdrMHLPE6jfmN-125">
          <mxGeometry relative="1" as="geometry">
            <mxPoint x="-560" y="165" as="sourcePoint" />
            <mxPoint x="-125" y="165" as="targetPoint" />
          </mxGeometry>
        </mxCell>
        <mxCell id="9iDccagzdrMHLPE6jfmN-131" value="1,n" style="edgeLabel;html=1;align=center;verticalAlign=middle;resizable=0;points=[];fontFamily=Helvetica;fontSize=11;fontColor=default;labelBackgroundColor=default;" vertex="1" connectable="0" parent="9iDccagzdrMHLPE6jfmN-126">
          <mxGeometry x="0.5339" y="1" relative="1" as="geometry">
            <mxPoint as="offset" />
          </mxGeometry>
        </mxCell>
        <mxCell id="9iDccagzdrMHLPE6jfmN-137" style="edgeStyle=none;shape=connector;rounded=0;orthogonalLoop=1;jettySize=auto;html=1;strokeColor=default;align=center;verticalAlign=middle;fontFamily=Helvetica;fontSize=11;fontColor=default;labelBackgroundColor=default;endArrow=none;endFill=0;" edge="1" parent="1" source="9iDccagzdrMHLPE6jfmN-125" target="9iDccagzdrMHLPE6jfmN-136">
          <mxGeometry relative="1" as="geometry" />
        </mxCell>
        <mxCell id="9iDccagzdrMHLPE6jfmN-141" style="edgeStyle=none;shape=connector;rounded=0;orthogonalLoop=1;jettySize=auto;html=1;strokeColor=default;align=center;verticalAlign=middle;fontFamily=Helvetica;fontSize=11;fontColor=default;labelBackgroundColor=default;endArrow=none;endFill=0;" edge="1" parent="1" source="9iDccagzdrMHLPE6jfmN-125" target="9iDccagzdrMHLPE6jfmN-140">
          <mxGeometry relative="1" as="geometry" />
        </mxCell>
        <mxCell id="9iDccagzdrMHLPE6jfmN-200" style="edgeStyle=none;shape=connector;rounded=0;orthogonalLoop=1;jettySize=auto;html=1;strokeColor=default;align=center;verticalAlign=middle;fontFamily=Helvetica;fontSize=11;fontColor=default;labelBackgroundColor=default;endArrow=none;endFill=0;" edge="1" parent="1" source="9iDccagzdrMHLPE6jfmN-125" target="9iDccagzdrMHLPE6jfmN-199">
          <mxGeometry relative="1" as="geometry" />
        </mxCell>
        <mxCell id="9iDccagzdrMHLPE6jfmN-125" value="&lt;span style=&quot;font-size: 12px; background-color: rgb(251, 251, 251);&quot;&gt;Transaction-Game&lt;/span&gt;" style="rounded=1;whiteSpace=wrap;html=1;fontFamily=Helvetica;fontSize=11;fontColor=default;labelBackgroundColor=default;" vertex="1" parent="1">
          <mxGeometry x="-375" y="140" width="100" height="50" as="geometry" />
        </mxCell>
        <mxCell id="9iDccagzdrMHLPE6jfmN-128" value="" style="edgeStyle=none;shape=connector;rounded=0;orthogonalLoop=1;jettySize=auto;html=1;strokeColor=default;align=center;verticalAlign=middle;fontFamily=Helvetica;fontSize=11;fontColor=default;labelBackgroundColor=default;endArrow=none;endFill=0;" edge="1" parent="1" source="9iDccagzdrMHLPE6jfmN-115" target="9iDccagzdrMHLPE6jfmN-127">
          <mxGeometry relative="1" as="geometry">
            <mxPoint x="-560" y="165" as="sourcePoint" />
            <mxPoint x="-375" y="165" as="targetPoint" />
          </mxGeometry>
        </mxCell>
        <mxCell id="9iDccagzdrMHLPE6jfmN-130" value="1" style="edgeLabel;html=1;align=center;verticalAlign=middle;resizable=0;points=[];fontFamily=Helvetica;fontSize=11;fontColor=default;labelBackgroundColor=default;" vertex="1" connectable="0" parent="9iDccagzdrMHLPE6jfmN-128">
          <mxGeometry x="-0.6333" y="1" relative="1" as="geometry">
            <mxPoint as="offset" />
          </mxGeometry>
        </mxCell>
        <mxCell id="9iDccagzdrMHLPE6jfmN-127" value="Order" style="rhombus;whiteSpace=wrap;html=1;fontFamily=Helvetica;fontSize=11;fontColor=default;labelBackgroundColor=default;" vertex="1" parent="1">
          <mxGeometry x="-500" y="140" width="50" height="50" as="geometry" />
        </mxCell>
        <mxCell id="9iDccagzdrMHLPE6jfmN-136" value="Game Id" style="ellipse;whiteSpace=wrap;html=1;fontStyle=5" vertex="1" parent="1">
          <mxGeometry x="-430" y="200" width="90" height="50" as="geometry" />
        </mxCell>
        <mxCell id="9iDccagzdrMHLPE6jfmN-138" value="Transaction date" style="ellipse;whiteSpace=wrap;html=1;" vertex="1" parent="1">
          <mxGeometry x="-590" y="200" width="90" height="50" as="geometry" />
        </mxCell>
        <mxCell id="9iDccagzdrMHLPE6jfmN-140" value="Game base price at the time" style="ellipse;whiteSpace=wrap;html=1;" vertex="1" parent="1">
          <mxGeometry x="-310" y="201.67" width="90" height="50" as="geometry" />
        </mxCell>
        <mxCell id="9iDccagzdrMHLPE6jfmN-150" style="edgeStyle=none;shape=connector;rounded=0;orthogonalLoop=1;jettySize=auto;html=1;strokeColor=default;align=center;verticalAlign=middle;fontFamily=Helvetica;fontSize=11;fontColor=default;labelBackgroundColor=default;endArrow=none;endFill=0;" edge="1" parent="1" source="9iDccagzdrMHLPE6jfmN-161" target="9iDccagzdrMHLPE6jfmN-148">
          <mxGeometry relative="1" as="geometry" />
        </mxCell>
        <mxCell id="9iDccagzdrMHLPE6jfmN-184" value="1" style="edgeLabel;html=1;align=center;verticalAlign=middle;resizable=0;points=[];fontFamily=Helvetica;fontSize=11;fontColor=default;labelBackgroundColor=default;" vertex="1" connectable="0" parent="9iDccagzdrMHLPE6jfmN-150">
          <mxGeometry x="0.725" y="-1" relative="1" as="geometry">
            <mxPoint as="offset" />
          </mxGeometry>
        </mxCell>
        <mxCell id="9iDccagzdrMHLPE6jfmN-153" style="edgeStyle=none;shape=connector;rounded=0;orthogonalLoop=1;jettySize=auto;html=1;strokeColor=default;align=center;verticalAlign=middle;fontFamily=Helvetica;fontSize=11;fontColor=default;labelBackgroundColor=default;endArrow=none;endFill=0;" edge="1" parent="1" source="9iDccagzdrMHLPE6jfmN-144" target="9iDccagzdrMHLPE6jfmN-151">
          <mxGeometry relative="1" as="geometry" />
        </mxCell>
        <mxCell id="9iDccagzdrMHLPE6jfmN-144" value="&lt;span style=&quot;font-size: 12px; background-color: rgb(251, 251, 251);&quot;&gt;Discount-Game&lt;/span&gt;" style="rounded=1;whiteSpace=wrap;html=1;fontFamily=Helvetica;fontSize=11;fontColor=default;labelBackgroundColor=default;" vertex="1" parent="1">
          <mxGeometry x="-80" y="-160" width="100" height="50" as="geometry" />
        </mxCell>
        <mxCell id="9iDccagzdrMHLPE6jfmN-173" style="edgeStyle=none;shape=connector;rounded=0;orthogonalLoop=1;jettySize=auto;html=1;strokeColor=default;align=center;verticalAlign=middle;fontFamily=Helvetica;fontSize=11;fontColor=default;labelBackgroundColor=default;endArrow=none;endFill=0;" edge="1" parent="1" source="9iDccagzdrMHLPE6jfmN-178" target="9iDccagzdrMHLPE6jfmN-125">
          <mxGeometry relative="1" as="geometry" />
        </mxCell>
        <mxCell id="9iDccagzdrMHLPE6jfmN-180" value="1" style="edgeLabel;html=1;align=center;verticalAlign=middle;resizable=0;points=[];fontFamily=Helvetica;fontSize=11;fontColor=default;labelBackgroundColor=default;" vertex="1" connectable="0" parent="9iDccagzdrMHLPE6jfmN-173">
          <mxGeometry x="0.2333" y="-2" relative="1" as="geometry">
            <mxPoint as="offset" />
          </mxGeometry>
        </mxCell>
        <mxCell id="9iDccagzdrMHLPE6jfmN-260" style="edgeStyle=none;shape=connector;rounded=0;orthogonalLoop=1;jettySize=auto;html=1;strokeColor=default;align=center;verticalAlign=middle;fontFamily=Helvetica;fontSize=11;fontColor=default;labelBackgroundColor=default;endArrow=none;endFill=0;" edge="1" parent="1" source="9iDccagzdrMHLPE6jfmN-263" target="9iDccagzdrMHLPE6jfmN-252">
          <mxGeometry relative="1" as="geometry" />
        </mxCell>
        <mxCell id="9iDccagzdrMHLPE6jfmN-282" value="0,n" style="edgeLabel;html=1;align=center;verticalAlign=middle;resizable=0;points=[];fontFamily=Helvetica;fontSize=11;fontColor=default;labelBackgroundColor=default;" vertex="1" connectable="0" parent="9iDccagzdrMHLPE6jfmN-260">
          <mxGeometry x="0.3857" y="-3" relative="1" as="geometry">
            <mxPoint as="offset" />
          </mxGeometry>
        </mxCell>
        <mxCell id="9iDccagzdrMHLPE6jfmN-148" value="&lt;span style=&quot;font-size: 12px; background-color: rgb(251, 251, 251);&quot;&gt;Discount&lt;/span&gt;" style="rounded=1;whiteSpace=wrap;html=1;fontFamily=Helvetica;fontSize=11;fontColor=default;labelBackgroundColor=default;" vertex="1" parent="1">
          <mxGeometry x="-375" y="-160" width="100" height="50" as="geometry" />
        </mxCell>
        <mxCell id="9iDccagzdrMHLPE6jfmN-151" value="Game Id" style="ellipse;whiteSpace=wrap;html=1;fontStyle=5" vertex="1" parent="1">
          <mxGeometry x="-120" y="-100" width="90" height="50" as="geometry" />
        </mxCell>
        <mxCell id="9iDccagzdrMHLPE6jfmN-156" style="edgeStyle=none;shape=connector;rounded=0;orthogonalLoop=1;jettySize=auto;html=1;strokeColor=default;align=center;verticalAlign=middle;fontFamily=Helvetica;fontSize=11;fontColor=default;labelBackgroundColor=default;endArrow=none;endFill=0;" edge="1" parent="1" source="9iDccagzdrMHLPE6jfmN-155" target="9iDccagzdrMHLPE6jfmN-148">
          <mxGeometry relative="1" as="geometry" />
        </mxCell>
        <mxCell id="9iDccagzdrMHLPE6jfmN-155" value="Discount Id" style="ellipse;whiteSpace=wrap;html=1;fontStyle=5" vertex="1" parent="1">
          <mxGeometry x="-285" y="-257.5" width="90" height="50" as="geometry" />
        </mxCell>
        <mxCell id="9iDccagzdrMHLPE6jfmN-160" style="edgeStyle=none;shape=connector;rounded=0;orthogonalLoop=1;jettySize=auto;html=1;strokeColor=default;align=center;verticalAlign=middle;fontFamily=Helvetica;fontSize=11;fontColor=default;labelBackgroundColor=default;endArrow=none;endFill=0;" edge="1" parent="1" source="9iDccagzdrMHLPE6jfmN-157" target="9iDccagzdrMHLPE6jfmN-144">
          <mxGeometry relative="1" as="geometry" />
        </mxCell>
        <mxCell id="9iDccagzdrMHLPE6jfmN-157" value="Discount Id" style="ellipse;whiteSpace=wrap;html=1;fontStyle=5" vertex="1" parent="1">
          <mxGeometry x="-75" y="-220" width="90" height="50" as="geometry" />
        </mxCell>
        <mxCell id="9iDccagzdrMHLPE6jfmN-162" value="" style="edgeStyle=none;shape=connector;rounded=0;orthogonalLoop=1;jettySize=auto;html=1;strokeColor=default;align=center;verticalAlign=middle;fontFamily=Helvetica;fontSize=11;fontColor=default;labelBackgroundColor=default;endArrow=none;endFill=0;" edge="1" parent="1" source="9iDccagzdrMHLPE6jfmN-144" target="9iDccagzdrMHLPE6jfmN-161">
          <mxGeometry relative="1" as="geometry">
            <mxPoint x="-80" y="-135" as="sourcePoint" />
            <mxPoint x="-270" y="-135" as="targetPoint" />
          </mxGeometry>
        </mxCell>
        <mxCell id="9iDccagzdrMHLPE6jfmN-185" value="n" style="edgeLabel;html=1;align=center;verticalAlign=middle;resizable=0;points=[];fontFamily=Helvetica;fontSize=11;fontColor=default;labelBackgroundColor=default;" vertex="1" connectable="0" parent="9iDccagzdrMHLPE6jfmN-162">
          <mxGeometry x="-0.5692" relative="1" as="geometry">
            <mxPoint as="offset" />
          </mxGeometry>
        </mxCell>
        <mxCell id="9iDccagzdrMHLPE6jfmN-161" value="Has" style="rhombus;whiteSpace=wrap;html=1;fontFamily=Helvetica;fontSize=11;fontColor=default;labelBackgroundColor=default;" vertex="1" parent="1">
          <mxGeometry x="-195" y="-160" width="50" height="50" as="geometry" />
        </mxCell>
        <mxCell id="9iDccagzdrMHLPE6jfmN-164" value="" style="edgeStyle=none;shape=connector;rounded=0;orthogonalLoop=1;jettySize=auto;html=1;strokeColor=default;align=center;verticalAlign=middle;fontFamily=Helvetica;fontSize=11;fontColor=default;labelBackgroundColor=default;endArrow=none;endFill=0;" edge="1" parent="1" source="qxAZUziXXPFpN-YLYpxu-57" target="9iDccagzdrMHLPE6jfmN-163">
          <mxGeometry relative="1" as="geometry">
            <mxPoint x="187" y="363" as="sourcePoint" />
            <mxPoint x="-17" y="-30" as="targetPoint" />
          </mxGeometry>
        </mxCell>
        <mxCell id="9iDccagzdrMHLPE6jfmN-165" value="1" style="edgeLabel;html=1;align=center;verticalAlign=middle;resizable=0;points=[];fontFamily=Helvetica;fontSize=11;fontColor=default;labelBackgroundColor=default;" vertex="1" connectable="0" parent="9iDccagzdrMHLPE6jfmN-164">
          <mxGeometry x="-0.8559" relative="1" as="geometry">
            <mxPoint y="-1" as="offset" />
          </mxGeometry>
        </mxCell>
        <mxCell id="9iDccagzdrMHLPE6jfmN-163" value="Has" style="rhombus;whiteSpace=wrap;html=1;fontFamily=Helvetica;fontSize=11;fontColor=default;labelBackgroundColor=default;" vertex="1" parent="1">
          <mxGeometry x="50" y="80" width="50" height="50" as="geometry" />
        </mxCell>
        <mxCell id="9iDccagzdrMHLPE6jfmN-168" style="edgeStyle=none;shape=connector;rounded=0;orthogonalLoop=1;jettySize=auto;html=1;strokeColor=default;align=center;verticalAlign=middle;fontFamily=Helvetica;fontSize=11;fontColor=default;labelBackgroundColor=default;endArrow=none;endFill=0;" edge="1" parent="1" source="9iDccagzdrMHLPE6jfmN-167" target="9iDccagzdrMHLPE6jfmN-148">
          <mxGeometry relative="1" as="geometry" />
        </mxCell>
        <mxCell id="9iDccagzdrMHLPE6jfmN-167" value="Discount percent" style="ellipse;whiteSpace=wrap;html=1;" vertex="1" parent="1">
          <mxGeometry x="-275" y="-120" width="90" height="50" as="geometry" />
        </mxCell>
        <mxCell id="9iDccagzdrMHLPE6jfmN-170" style="edgeStyle=none;shape=connector;rounded=0;orthogonalLoop=1;jettySize=auto;html=1;strokeColor=default;align=center;verticalAlign=middle;fontFamily=Helvetica;fontSize=11;fontColor=default;labelBackgroundColor=default;endArrow=none;endFill=0;" edge="1" parent="1" source="9iDccagzdrMHLPE6jfmN-169" target="9iDccagzdrMHLPE6jfmN-148">
          <mxGeometry relative="1" as="geometry" />
        </mxCell>
        <mxCell id="9iDccagzdrMHLPE6jfmN-169" value="Discount description" style="ellipse;whiteSpace=wrap;html=1;" vertex="1" parent="1">
          <mxGeometry x="-373" y="-250" width="90" height="50" as="geometry" />
        </mxCell>
        <mxCell id="9iDccagzdrMHLPE6jfmN-172" style="edgeStyle=none;shape=connector;rounded=0;orthogonalLoop=1;jettySize=auto;html=1;strokeColor=default;align=center;verticalAlign=middle;fontFamily=Helvetica;fontSize=11;fontColor=default;labelBackgroundColor=default;endArrow=none;endFill=0;" edge="1" parent="1" source="9iDccagzdrMHLPE6jfmN-171" target="9iDccagzdrMHLPE6jfmN-148">
          <mxGeometry relative="1" as="geometry" />
        </mxCell>
        <mxCell id="9iDccagzdrMHLPE6jfmN-171" value="Discount name" style="ellipse;whiteSpace=wrap;html=1;" vertex="1" parent="1">
          <mxGeometry x="-200" y="-230" width="90" height="50" as="geometry" />
        </mxCell>
        <mxCell id="9iDccagzdrMHLPE6jfmN-175" value="" style="edgeStyle=none;shape=connector;rounded=0;orthogonalLoop=1;jettySize=auto;html=1;strokeColor=default;align=center;verticalAlign=middle;fontFamily=Helvetica;fontSize=11;fontColor=default;labelBackgroundColor=default;endArrow=none;endFill=0;" edge="1" parent="1" source="9iDccagzdrMHLPE6jfmN-148" target="9iDccagzdrMHLPE6jfmN-174">
          <mxGeometry relative="1" as="geometry">
            <mxPoint x="-329" y="-120" as="sourcePoint" />
            <mxPoint x="-325" y="-30" as="targetPoint" />
          </mxGeometry>
        </mxCell>
        <mxCell id="9iDccagzdrMHLPE6jfmN-183" value="1" style="edgeLabel;html=1;align=center;verticalAlign=middle;resizable=0;points=[];fontFamily=Helvetica;fontSize=11;fontColor=default;labelBackgroundColor=default;" vertex="1" connectable="0" parent="9iDccagzdrMHLPE6jfmN-175">
          <mxGeometry x="-0.2533" y="1" relative="1" as="geometry">
            <mxPoint as="offset" />
          </mxGeometry>
        </mxCell>
        <mxCell id="9iDccagzdrMHLPE6jfmN-174" value="Has" style="rhombus;whiteSpace=wrap;html=1;fontFamily=Helvetica;fontSize=11;fontColor=default;labelBackgroundColor=default;" vertex="1" parent="1">
          <mxGeometry x="-350" y="-85" width="50" height="50" as="geometry" />
        </mxCell>
        <mxCell id="9iDccagzdrMHLPE6jfmN-177" value="" style="edgeStyle=none;shape=connector;rounded=0;orthogonalLoop=1;jettySize=auto;html=1;strokeColor=default;align=center;verticalAlign=middle;fontFamily=Helvetica;fontSize=11;fontColor=default;labelBackgroundColor=default;endArrow=none;endFill=0;" edge="1" parent="1" source="9iDccagzdrMHLPE6jfmN-174" target="9iDccagzdrMHLPE6jfmN-176">
          <mxGeometry relative="1" as="geometry">
            <mxPoint x="-325" y="-10" as="sourcePoint" />
            <mxPoint x="-325" y="140" as="targetPoint" />
          </mxGeometry>
        </mxCell>
        <mxCell id="9iDccagzdrMHLPE6jfmN-182" value="0,n" style="edgeLabel;html=1;align=center;verticalAlign=middle;resizable=0;points=[];fontFamily=Helvetica;fontSize=11;fontColor=default;labelBackgroundColor=default;" vertex="1" connectable="0" parent="9iDccagzdrMHLPE6jfmN-177">
          <mxGeometry x="0.3467" y="1" relative="1" as="geometry">
            <mxPoint as="offset" />
          </mxGeometry>
        </mxCell>
        <mxCell id="9iDccagzdrMHLPE6jfmN-188" style="edgeStyle=none;shape=connector;rounded=0;orthogonalLoop=1;jettySize=auto;html=1;strokeColor=default;align=center;verticalAlign=middle;fontFamily=Helvetica;fontSize=11;fontColor=default;labelBackgroundColor=default;endArrow=none;endFill=0;" edge="1" parent="1" source="9iDccagzdrMHLPE6jfmN-176" target="9iDccagzdrMHLPE6jfmN-187">
          <mxGeometry relative="1" as="geometry" />
        </mxCell>
        <mxCell id="9iDccagzdrMHLPE6jfmN-191" style="edgeStyle=none;shape=connector;rounded=0;orthogonalLoop=1;jettySize=auto;html=1;strokeColor=default;align=center;verticalAlign=middle;fontFamily=Helvetica;fontSize=11;fontColor=default;labelBackgroundColor=default;endArrow=none;endFill=0;" edge="1" parent="1" source="9iDccagzdrMHLPE6jfmN-176" target="9iDccagzdrMHLPE6jfmN-190">
          <mxGeometry relative="1" as="geometry" />
        </mxCell>
        <mxCell id="9iDccagzdrMHLPE6jfmN-192" style="edgeStyle=none;shape=connector;rounded=0;orthogonalLoop=1;jettySize=auto;html=1;strokeColor=default;align=center;verticalAlign=middle;fontFamily=Helvetica;fontSize=11;fontColor=default;labelBackgroundColor=default;endArrow=none;endFill=0;" edge="1" parent="1" source="9iDccagzdrMHLPE6jfmN-176" target="9iDccagzdrMHLPE6jfmN-189">
          <mxGeometry relative="1" as="geometry" />
        </mxCell>
        <mxCell id="9iDccagzdrMHLPE6jfmN-176" value="&lt;span style=&quot;font-size: 12px; background-color: rgb(251, 251, 251);&quot;&gt;Discount-&lt;/span&gt;&lt;span style=&quot;font-size: 12px; background-color: rgb(251, 251, 251);&quot;&gt;Transaction-Game&lt;/span&gt;" style="rounded=1;whiteSpace=wrap;html=1;fontFamily=Helvetica;fontSize=11;fontColor=default;labelBackgroundColor=default;" vertex="1" parent="1">
          <mxGeometry x="-375" y="-10" width="100" height="50" as="geometry" />
        </mxCell>
        <mxCell id="9iDccagzdrMHLPE6jfmN-179" value="" style="edgeStyle=none;shape=connector;rounded=0;orthogonalLoop=1;jettySize=auto;html=1;strokeColor=default;align=center;verticalAlign=middle;fontFamily=Helvetica;fontSize=11;fontColor=default;labelBackgroundColor=default;endArrow=none;endFill=0;" edge="1" parent="1" source="9iDccagzdrMHLPE6jfmN-176" target="9iDccagzdrMHLPE6jfmN-178">
          <mxGeometry relative="1" as="geometry">
            <mxPoint x="-325" y="50" as="sourcePoint" />
            <mxPoint x="-325" y="140" as="targetPoint" />
          </mxGeometry>
        </mxCell>
        <mxCell id="9iDccagzdrMHLPE6jfmN-181" value="0,n" style="edgeLabel;html=1;align=center;verticalAlign=middle;resizable=0;points=[];fontFamily=Helvetica;fontSize=11;fontColor=default;labelBackgroundColor=default;" vertex="1" connectable="0" parent="9iDccagzdrMHLPE6jfmN-179">
          <mxGeometry x="-0.4833" y="-2" relative="1" as="geometry">
            <mxPoint as="offset" />
          </mxGeometry>
        </mxCell>
        <mxCell id="9iDccagzdrMHLPE6jfmN-178" value="Has" style="rhombus;whiteSpace=wrap;html=1;fontFamily=Helvetica;fontSize=11;fontColor=default;labelBackgroundColor=default;" vertex="1" parent="1">
          <mxGeometry x="-350" y="60" width="50" height="50" as="geometry" />
        </mxCell>
        <mxCell id="9iDccagzdrMHLPE6jfmN-187" value="Discount Id" style="ellipse;whiteSpace=wrap;html=1;fontStyle=5" vertex="1" parent="1">
          <mxGeometry x="-480" y="-10" width="90" height="50" as="geometry" />
        </mxCell>
        <mxCell id="9iDccagzdrMHLPE6jfmN-189" value="Game Id" style="ellipse;whiteSpace=wrap;html=1;fontStyle=5" vertex="1" parent="1">
          <mxGeometry x="-290" y="70" width="90" height="50" as="geometry" />
        </mxCell>
        <mxCell id="9iDccagzdrMHLPE6jfmN-190" value="Transaction Id" style="ellipse;whiteSpace=wrap;html=1;fontStyle=5" vertex="1" parent="1">
          <mxGeometry x="-260" y="10" width="90" height="50" as="geometry" />
        </mxCell>
        <mxCell id="9iDccagzdrMHLPE6jfmN-194" style="edgeStyle=none;shape=connector;rounded=0;orthogonalLoop=1;jettySize=auto;html=1;strokeColor=default;align=center;verticalAlign=middle;fontFamily=Helvetica;fontSize=11;fontColor=default;labelBackgroundColor=default;endArrow=none;endFill=0;" edge="1" parent="1" source="9iDccagzdrMHLPE6jfmN-193" target="9iDccagzdrMHLPE6jfmN-176">
          <mxGeometry relative="1" as="geometry" />
        </mxCell>
        <mxCell id="9iDccagzdrMHLPE6jfmN-193" value="Discount percent at the time" style="ellipse;whiteSpace=wrap;html=1;" vertex="1" parent="1">
          <mxGeometry x="-285" y="-60" width="90" height="50" as="geometry" />
        </mxCell>
        <mxCell id="9iDccagzdrMHLPE6jfmN-198" style="edgeStyle=none;shape=connector;rounded=0;orthogonalLoop=1;jettySize=auto;html=1;strokeColor=default;align=center;verticalAlign=middle;fontFamily=Helvetica;fontSize=11;fontColor=default;labelBackgroundColor=default;endArrow=none;endFill=0;" edge="1" parent="1" source="9iDccagzdrMHLPE6jfmN-197" target="9iDccagzdrMHLPE6jfmN-115">
          <mxGeometry relative="1" as="geometry" />
        </mxCell>
        <mxCell id="9iDccagzdrMHLPE6jfmN-197" value="Transaction Id" style="ellipse;whiteSpace=wrap;html=1;fontStyle=5" vertex="1" parent="1">
          <mxGeometry x="-730" y="80" width="90" height="50" as="geometry" />
        </mxCell>
        <mxCell id="9iDccagzdrMHLPE6jfmN-199" value="Transaction Id" style="ellipse;whiteSpace=wrap;html=1;fontStyle=5" vertex="1" parent="1">
          <mxGeometry x="-458" y="91.67" width="90" height="50" as="geometry" />
        </mxCell>
        <mxCell id="9iDccagzdrMHLPE6jfmN-203" style="edgeStyle=none;shape=connector;rounded=0;orthogonalLoop=1;jettySize=auto;html=1;strokeColor=default;align=center;verticalAlign=middle;fontFamily=Helvetica;fontSize=11;fontColor=default;labelBackgroundColor=default;endArrow=none;endFill=0;" edge="1" parent="1" source="9iDccagzdrMHLPE6jfmN-204" target="qxAZUziXXPFpN-YLYpxu-16">
          <mxGeometry relative="1" as="geometry" />
        </mxCell>
        <mxCell id="9iDccagzdrMHLPE6jfmN-212" value="1" style="edgeLabel;html=1;align=center;verticalAlign=middle;resizable=0;points=[];fontFamily=Helvetica;fontSize=11;fontColor=default;labelBackgroundColor=default;" vertex="1" connectable="0" parent="9iDccagzdrMHLPE6jfmN-203">
          <mxGeometry x="0.741" y="1" relative="1" as="geometry">
            <mxPoint as="offset" />
          </mxGeometry>
        </mxCell>
        <mxCell id="9iDccagzdrMHLPE6jfmN-209" style="edgeStyle=none;shape=connector;rounded=0;orthogonalLoop=1;jettySize=auto;html=1;strokeColor=default;align=center;verticalAlign=middle;fontFamily=Helvetica;fontSize=11;fontColor=default;labelBackgroundColor=default;endArrow=none;endFill=0;" edge="1" parent="1" source="9iDccagzdrMHLPE6jfmN-202" target="9iDccagzdrMHLPE6jfmN-208">
          <mxGeometry relative="1" as="geometry" />
        </mxCell>
        <mxCell id="9iDccagzdrMHLPE6jfmN-211" style="edgeStyle=none;shape=connector;rounded=0;orthogonalLoop=1;jettySize=auto;html=1;strokeColor=default;align=center;verticalAlign=middle;fontFamily=Helvetica;fontSize=11;fontColor=default;labelBackgroundColor=default;endArrow=none;endFill=0;" edge="1" parent="1" source="9iDccagzdrMHLPE6jfmN-202" target="9iDccagzdrMHLPE6jfmN-210">
          <mxGeometry relative="1" as="geometry" />
        </mxCell>
        <mxCell id="9iDccagzdrMHLPE6jfmN-219" style="edgeStyle=none;shape=connector;rounded=0;orthogonalLoop=1;jettySize=auto;html=1;strokeColor=default;align=center;verticalAlign=middle;fontFamily=Helvetica;fontSize=11;fontColor=default;labelBackgroundColor=default;endArrow=none;endFill=0;" edge="1" parent="1" source="9iDccagzdrMHLPE6jfmN-202" target="qxAZUziXXPFpN-YLYpxu-57">
          <mxGeometry relative="1" as="geometry" />
        </mxCell>
        <mxCell id="9iDccagzdrMHLPE6jfmN-220" value="1" style="edgeLabel;html=1;align=center;verticalAlign=middle;resizable=0;points=[];fontFamily=Helvetica;fontSize=11;fontColor=default;labelBackgroundColor=default;" vertex="1" connectable="0" parent="9iDccagzdrMHLPE6jfmN-219">
          <mxGeometry x="0.9064" y="-1" relative="1" as="geometry">
            <mxPoint as="offset" />
          </mxGeometry>
        </mxCell>
        <mxCell id="9iDccagzdrMHLPE6jfmN-221" value="n" style="edgeLabel;html=1;align=center;verticalAlign=middle;resizable=0;points=[];fontFamily=Helvetica;fontSize=11;fontColor=default;labelBackgroundColor=default;" vertex="1" connectable="0" parent="9iDccagzdrMHLPE6jfmN-219">
          <mxGeometry x="-0.8734" y="-1" relative="1" as="geometry">
            <mxPoint as="offset" />
          </mxGeometry>
        </mxCell>
        <mxCell id="9iDccagzdrMHLPE6jfmN-202" value="&lt;span style=&quot;font-size: 12px; background-color: rgb(251, 251, 251);&quot;&gt;Review&lt;/span&gt;" style="rounded=1;whiteSpace=wrap;html=1;fontFamily=Helvetica;fontSize=11;fontColor=default;labelBackgroundColor=default;" vertex="1" parent="1">
          <mxGeometry x="394.79" y="852.5" width="100" height="50" as="geometry" />
        </mxCell>
        <mxCell id="9iDccagzdrMHLPE6jfmN-205" value="" style="edgeStyle=none;shape=connector;rounded=0;orthogonalLoop=1;jettySize=auto;html=1;strokeColor=default;align=center;verticalAlign=middle;fontFamily=Helvetica;fontSize=11;fontColor=default;labelBackgroundColor=default;endArrow=none;endFill=0;" edge="1" parent="1" source="9iDccagzdrMHLPE6jfmN-202" target="9iDccagzdrMHLPE6jfmN-204">
          <mxGeometry relative="1" as="geometry">
            <mxPoint x="-740" y="400" as="sourcePoint" />
            <mxPoint x="-460" y="603" as="targetPoint" />
          </mxGeometry>
        </mxCell>
        <mxCell id="9iDccagzdrMHLPE6jfmN-213" value="0,n" style="edgeLabel;html=1;align=center;verticalAlign=middle;resizable=0;points=[];fontFamily=Helvetica;fontSize=11;fontColor=default;labelBackgroundColor=default;" vertex="1" connectable="0" parent="9iDccagzdrMHLPE6jfmN-205">
          <mxGeometry x="-0.8014" y="-1" relative="1" as="geometry">
            <mxPoint x="1" as="offset" />
          </mxGeometry>
        </mxCell>
        <mxCell id="9iDccagzdrMHLPE6jfmN-204" value="Pay" style="rhombus;whiteSpace=wrap;html=1;fontFamily=Helvetica;fontSize=11;fontColor=default;labelBackgroundColor=default;" vertex="1" parent="1">
          <mxGeometry x="-260" y="853.75" width="50" height="50" as="geometry" />
        </mxCell>
        <mxCell id="9iDccagzdrMHLPE6jfmN-207" style="edgeStyle=none;shape=connector;rounded=0;orthogonalLoop=1;jettySize=auto;html=1;strokeColor=default;align=center;verticalAlign=middle;fontFamily=Helvetica;fontSize=11;fontColor=default;labelBackgroundColor=default;endArrow=none;endFill=0;" edge="1" parent="1" source="9iDccagzdrMHLPE6jfmN-206" target="9iDccagzdrMHLPE6jfmN-202">
          <mxGeometry relative="1" as="geometry" />
        </mxCell>
        <mxCell id="9iDccagzdrMHLPE6jfmN-206" value="Review Id" style="ellipse;whiteSpace=wrap;html=1;fontStyle=5" vertex="1" parent="1">
          <mxGeometry x="304.79" y="803.75" width="90" height="50" as="geometry" />
        </mxCell>
        <mxCell id="9iDccagzdrMHLPE6jfmN-208" value="Review" style="ellipse;whiteSpace=wrap;html=1;fontStyle=0" vertex="1" parent="1">
          <mxGeometry x="399.79" y="738.75" width="90" height="50" as="geometry" />
        </mxCell>
        <mxCell id="9iDccagzdrMHLPE6jfmN-210" value="Recommended" style="ellipse;whiteSpace=wrap;html=1;fontStyle=0" vertex="1" parent="1">
          <mxGeometry x="504" y="840" width="90" height="50" as="geometry" />
        </mxCell>
        <mxCell id="9iDccagzdrMHLPE6jfmN-215" style="edgeStyle=none;shape=connector;rounded=0;orthogonalLoop=1;jettySize=auto;html=1;strokeColor=default;align=center;verticalAlign=middle;fontFamily=Helvetica;fontSize=11;fontColor=default;labelBackgroundColor=default;endArrow=none;endFill=0;" edge="1" parent="1" source="9iDccagzdrMHLPE6jfmN-214" target="9iDccagzdrMHLPE6jfmN-202">
          <mxGeometry relative="1" as="geometry" />
        </mxCell>
        <mxCell id="9iDccagzdrMHLPE6jfmN-214" value="&lt;span style=&quot;text-decoration-line: underline;&quot;&gt;User Id&lt;/span&gt;" style="ellipse;whiteSpace=wrap;html=1;fontStyle=0" vertex="1" parent="1">
          <mxGeometry x="500" y="780" width="90" height="50" as="geometry" />
        </mxCell>
        <mxCell id="9iDccagzdrMHLPE6jfmN-217" value="User Id" style="ellipse;whiteSpace=wrap;html=1;fontStyle=4" vertex="1" parent="1">
          <mxGeometry x="-140" y="803.75" width="90" height="50" as="geometry" />
        </mxCell>
        <mxCell id="9iDccagzdrMHLPE6jfmN-223" style="edgeStyle=none;shape=connector;rounded=0;orthogonalLoop=1;jettySize=auto;html=1;strokeColor=default;align=center;verticalAlign=middle;fontFamily=Helvetica;fontSize=11;fontColor=default;labelBackgroundColor=default;endArrow=none;endFill=0;" edge="1" parent="1" source="9iDccagzdrMHLPE6jfmN-222" target="9iDccagzdrMHLPE6jfmN-202">
          <mxGeometry relative="1" as="geometry" />
        </mxCell>
        <mxCell id="9iDccagzdrMHLPE6jfmN-222" value="Game Id" style="ellipse;whiteSpace=wrap;html=1;fontStyle=4" vertex="1" parent="1">
          <mxGeometry x="489.78999999999996" y="720" width="90" height="50" as="geometry" />
        </mxCell>
        <mxCell id="9iDccagzdrMHLPE6jfmN-234" style="edgeStyle=none;shape=connector;rounded=0;orthogonalLoop=1;jettySize=auto;html=1;strokeColor=default;align=center;verticalAlign=middle;fontFamily=Helvetica;fontSize=11;fontColor=default;labelBackgroundColor=default;endArrow=none;endFill=0;" edge="1" parent="1" source="9iDccagzdrMHLPE6jfmN-225" target="9iDccagzdrMHLPE6jfmN-233">
          <mxGeometry relative="1" as="geometry" />
        </mxCell>
        <mxCell id="9iDccagzdrMHLPE6jfmN-236" style="edgeStyle=none;shape=connector;rounded=0;orthogonalLoop=1;jettySize=auto;html=1;strokeColor=default;align=center;verticalAlign=middle;fontFamily=Helvetica;fontSize=11;fontColor=default;labelBackgroundColor=default;endArrow=none;endFill=0;" edge="1" parent="1" source="9iDccagzdrMHLPE6jfmN-225" target="9iDccagzdrMHLPE6jfmN-235">
          <mxGeometry relative="1" as="geometry" />
        </mxCell>
        <mxCell id="9iDccagzdrMHLPE6jfmN-238" style="edgeStyle=none;shape=connector;rounded=0;orthogonalLoop=1;jettySize=auto;html=1;strokeColor=default;align=center;verticalAlign=middle;fontFamily=Helvetica;fontSize=11;fontColor=default;labelBackgroundColor=default;endArrow=none;endFill=0;" edge="1" parent="1" source="9iDccagzdrMHLPE6jfmN-225" target="9iDccagzdrMHLPE6jfmN-237">
          <mxGeometry relative="1" as="geometry" />
        </mxCell>
        <mxCell id="9iDccagzdrMHLPE6jfmN-240" style="edgeStyle=none;shape=connector;rounded=0;orthogonalLoop=1;jettySize=auto;html=1;strokeColor=default;align=center;verticalAlign=middle;fontFamily=Helvetica;fontSize=11;fontColor=default;labelBackgroundColor=default;endArrow=none;endFill=0;" edge="1" parent="1" source="9iDccagzdrMHLPE6jfmN-225" target="9iDccagzdrMHLPE6jfmN-239">
          <mxGeometry relative="1" as="geometry" />
        </mxCell>
        <mxCell id="9iDccagzdrMHLPE6jfmN-245" style="edgeStyle=none;shape=connector;rounded=0;orthogonalLoop=1;jettySize=auto;html=1;strokeColor=default;align=center;verticalAlign=middle;fontFamily=Helvetica;fontSize=11;fontColor=default;labelBackgroundColor=default;endArrow=none;endFill=0;" edge="1" parent="1" source="9iDccagzdrMHLPE6jfmN-249" target="9iDccagzdrMHLPE6jfmN-246">
          <mxGeometry relative="1" as="geometry">
            <mxPoint x="-420" y="-350" as="targetPoint" />
          </mxGeometry>
        </mxCell>
        <mxCell id="9iDccagzdrMHLPE6jfmN-285" value="0,n" style="edgeLabel;html=1;align=center;verticalAlign=middle;resizable=0;points=[];fontFamily=Helvetica;fontSize=11;fontColor=default;labelBackgroundColor=default;" vertex="1" connectable="0" parent="9iDccagzdrMHLPE6jfmN-245">
          <mxGeometry x="0.931" relative="1" as="geometry">
            <mxPoint as="offset" />
          </mxGeometry>
        </mxCell>
        <mxCell id="9iDccagzdrMHLPE6jfmN-225" value="&lt;span style=&quot;font-size: 12px; background-color: rgb(251, 251, 251);&quot;&gt;DLC&lt;/span&gt;" style="rounded=1;whiteSpace=wrap;html=1;fontFamily=Helvetica;fontSize=11;fontColor=default;labelBackgroundColor=default;" vertex="1" parent="1">
          <mxGeometry x="144" y="-320" width="100" height="50" as="geometry" />
        </mxCell>
        <mxCell id="9iDccagzdrMHLPE6jfmN-243" style="edgeStyle=none;shape=connector;rounded=0;orthogonalLoop=1;jettySize=auto;html=1;strokeColor=default;align=center;verticalAlign=middle;fontFamily=Helvetica;fontSize=11;fontColor=default;labelBackgroundColor=default;endArrow=none;endFill=0;" edge="1" parent="1" source="9iDccagzdrMHLPE6jfmN-227" target="qxAZUziXXPFpN-YLYpxu-57">
          <mxGeometry relative="1" as="geometry" />
        </mxCell>
        <mxCell id="9iDccagzdrMHLPE6jfmN-287" value="1" style="edgeLabel;html=1;align=center;verticalAlign=middle;resizable=0;points=[];fontFamily=Helvetica;fontSize=11;fontColor=default;labelBackgroundColor=default;" vertex="1" connectable="0" parent="9iDccagzdrMHLPE6jfmN-243">
          <mxGeometry x="0.7949" y="1" relative="1" as="geometry">
            <mxPoint as="offset" />
          </mxGeometry>
        </mxCell>
        <mxCell id="9iDccagzdrMHLPE6jfmN-227" value="Has" style="rhombus;whiteSpace=wrap;html=1;fontFamily=Helvetica;fontSize=11;fontColor=default;labelBackgroundColor=default;" vertex="1" parent="1">
          <mxGeometry x="175" y="130" width="50" height="50" as="geometry" />
        </mxCell>
        <mxCell id="9iDccagzdrMHLPE6jfmN-232" style="edgeStyle=none;shape=connector;rounded=0;orthogonalLoop=1;jettySize=auto;html=1;strokeColor=default;align=center;verticalAlign=middle;fontFamily=Helvetica;fontSize=11;fontColor=default;labelBackgroundColor=default;endArrow=none;endFill=0;" edge="1" parent="1" source="9iDccagzdrMHLPE6jfmN-231" target="9iDccagzdrMHLPE6jfmN-225">
          <mxGeometry relative="1" as="geometry" />
        </mxCell>
        <mxCell id="9iDccagzdrMHLPE6jfmN-231" value="Game Id" style="ellipse;whiteSpace=wrap;html=1;fontStyle=4" vertex="1" parent="1">
          <mxGeometry x="159" y="-380" width="90" height="50" as="geometry" />
        </mxCell>
        <mxCell id="9iDccagzdrMHLPE6jfmN-233" value="DLC Id" style="ellipse;whiteSpace=wrap;html=1;fontStyle=5" vertex="1" parent="1">
          <mxGeometry x="264" y="-350" width="90" height="50" as="geometry" />
        </mxCell>
        <mxCell id="9iDccagzdrMHLPE6jfmN-235" value="DLC description" style="ellipse;whiteSpace=wrap;html=1;" vertex="1" parent="1">
          <mxGeometry x="280" y="-280" width="90" height="50" as="geometry" />
        </mxCell>
        <mxCell id="9iDccagzdrMHLPE6jfmN-237" value="DLC Name" style="ellipse;whiteSpace=wrap;html=1;" vertex="1" parent="1">
          <mxGeometry x="84" y="-257.5" width="90" height="50" as="geometry" />
        </mxCell>
        <mxCell id="9iDccagzdrMHLPE6jfmN-239" value="DLC Base Price" style="ellipse;whiteSpace=wrap;html=1;" vertex="1" parent="1">
          <mxGeometry x="214" y="-230" width="90" height="50" as="geometry" />
        </mxCell>
        <mxCell id="9iDccagzdrMHLPE6jfmN-242" value="" style="edgeStyle=none;shape=connector;rounded=0;orthogonalLoop=1;jettySize=auto;html=1;strokeColor=default;align=center;verticalAlign=middle;fontFamily=Helvetica;fontSize=11;fontColor=default;labelBackgroundColor=default;endArrow=none;endFill=0;" edge="1" parent="1" source="9iDccagzdrMHLPE6jfmN-3" target="9iDccagzdrMHLPE6jfmN-54">
          <mxGeometry relative="1" as="geometry">
            <mxPoint x="378" y="319" as="sourcePoint" />
            <mxPoint x="250" y="368" as="targetPoint" />
          </mxGeometry>
        </mxCell>
        <mxCell id="9iDccagzdrMHLPE6jfmN-54" value="Of" style="rhombus;whiteSpace=wrap;html=1;fontFamily=Helvetica;fontSize=11;fontColor=default;labelBackgroundColor=default;" vertex="1" parent="1">
          <mxGeometry x="299.99999999999994" y="362.5" width="50" height="50" as="geometry" />
        </mxCell>
        <mxCell id="9iDccagzdrMHLPE6jfmN-251" style="edgeStyle=none;shape=connector;rounded=0;orthogonalLoop=1;jettySize=auto;html=1;strokeColor=default;align=center;verticalAlign=middle;fontFamily=Helvetica;fontSize=11;fontColor=default;labelBackgroundColor=default;endArrow=none;endFill=0;" edge="1" parent="1" source="9iDccagzdrMHLPE6jfmN-261" target="9iDccagzdrMHLPE6jfmN-115">
          <mxGeometry relative="1" as="geometry" />
        </mxCell>
        <mxCell id="9iDccagzdrMHLPE6jfmN-284" value="1" style="edgeLabel;html=1;align=center;verticalAlign=middle;resizable=0;points=[];fontFamily=Helvetica;fontSize=11;fontColor=default;labelBackgroundColor=default;" vertex="1" connectable="0" parent="9iDccagzdrMHLPE6jfmN-251">
          <mxGeometry x="0.6805" relative="1" as="geometry">
            <mxPoint as="offset" />
          </mxGeometry>
        </mxCell>
        <mxCell id="9iDccagzdrMHLPE6jfmN-257" style="edgeStyle=none;shape=connector;rounded=0;orthogonalLoop=1;jettySize=auto;html=1;strokeColor=default;align=center;verticalAlign=middle;fontFamily=Helvetica;fontSize=11;fontColor=default;labelBackgroundColor=default;endArrow=none;endFill=0;" edge="1" parent="1" source="9iDccagzdrMHLPE6jfmN-246" target="9iDccagzdrMHLPE6jfmN-256">
          <mxGeometry relative="1" as="geometry" />
        </mxCell>
        <mxCell id="9iDccagzdrMHLPE6jfmN-266" style="edgeStyle=none;shape=connector;rounded=0;orthogonalLoop=1;jettySize=auto;html=1;strokeColor=default;align=center;verticalAlign=middle;fontFamily=Helvetica;fontSize=11;fontColor=default;labelBackgroundColor=default;endArrow=none;endFill=0;" edge="1" parent="1" source="9iDccagzdrMHLPE6jfmN-267" target="9iDccagzdrMHLPE6jfmN-252">
          <mxGeometry relative="1" as="geometry" />
        </mxCell>
        <mxCell id="9iDccagzdrMHLPE6jfmN-280" value="0,n" style="edgeLabel;html=1;align=center;verticalAlign=middle;resizable=0;points=[];fontFamily=Helvetica;fontSize=11;fontColor=default;labelBackgroundColor=default;" vertex="1" connectable="0" parent="9iDccagzdrMHLPE6jfmN-266">
          <mxGeometry x="0.473" relative="1" as="geometry">
            <mxPoint as="offset" />
          </mxGeometry>
        </mxCell>
        <mxCell id="9iDccagzdrMHLPE6jfmN-246" value="&lt;span style=&quot;font-size: 12px; background-color: rgb(251, 251, 251);&quot;&gt;Transaction-DLC&lt;/span&gt;" style="rounded=1;whiteSpace=wrap;html=1;fontFamily=Helvetica;fontSize=11;fontColor=default;labelBackgroundColor=default;" vertex="1" parent="1">
          <mxGeometry x="-655" y="-320" width="100" height="50" as="geometry" />
        </mxCell>
        <mxCell id="9iDccagzdrMHLPE6jfmN-250" value="" style="edgeStyle=none;shape=connector;rounded=0;orthogonalLoop=1;jettySize=auto;html=1;strokeColor=default;align=center;verticalAlign=middle;fontFamily=Helvetica;fontSize=11;fontColor=default;labelBackgroundColor=default;endArrow=none;endFill=0;" edge="1" parent="1" source="9iDccagzdrMHLPE6jfmN-225" target="9iDccagzdrMHLPE6jfmN-249">
          <mxGeometry relative="1" as="geometry">
            <mxPoint x="-580" y="-295" as="targetPoint" />
            <mxPoint x="144" y="-295" as="sourcePoint" />
          </mxGeometry>
        </mxCell>
        <mxCell id="9iDccagzdrMHLPE6jfmN-286" value="1" style="edgeLabel;html=1;align=center;verticalAlign=middle;resizable=0;points=[];fontFamily=Helvetica;fontSize=11;fontColor=default;labelBackgroundColor=default;" vertex="1" connectable="0" parent="9iDccagzdrMHLPE6jfmN-250">
          <mxGeometry x="-0.9292" relative="1" as="geometry">
            <mxPoint as="offset" />
          </mxGeometry>
        </mxCell>
        <mxCell id="9iDccagzdrMHLPE6jfmN-249" value="Has" style="rhombus;whiteSpace=wrap;html=1;fontFamily=Helvetica;fontSize=11;fontColor=default;labelBackgroundColor=default;" vertex="1" parent="1">
          <mxGeometry x="-265" y="-320" width="50" height="50" as="geometry" />
        </mxCell>
        <mxCell id="9iDccagzdrMHLPE6jfmN-274" style="edgeStyle=none;shape=connector;rounded=0;orthogonalLoop=1;jettySize=auto;html=1;strokeColor=default;align=center;verticalAlign=middle;fontFamily=Helvetica;fontSize=11;fontColor=default;labelBackgroundColor=default;endArrow=none;endFill=0;" edge="1" parent="1" source="9iDccagzdrMHLPE6jfmN-252" target="9iDccagzdrMHLPE6jfmN-273">
          <mxGeometry relative="1" as="geometry" />
        </mxCell>
        <mxCell id="9iDccagzdrMHLPE6jfmN-278" style="edgeStyle=none;shape=connector;rounded=0;orthogonalLoop=1;jettySize=auto;html=1;strokeColor=default;align=center;verticalAlign=middle;fontFamily=Helvetica;fontSize=11;fontColor=default;labelBackgroundColor=default;endArrow=none;endFill=0;" edge="1" parent="1" source="9iDccagzdrMHLPE6jfmN-252" target="9iDccagzdrMHLPE6jfmN-275">
          <mxGeometry relative="1" as="geometry" />
        </mxCell>
        <mxCell id="9iDccagzdrMHLPE6jfmN-252" value="&lt;span style=&quot;font-size: 12px; background-color: rgb(251, 251, 251);&quot;&gt;Discount-&lt;/span&gt;&lt;span style=&quot;font-size: 12px; background-color: rgb(251, 251, 251);&quot;&gt;Transaction-DLC&lt;/span&gt;" style="rounded=1;whiteSpace=wrap;html=1;fontFamily=Helvetica;fontSize=11;fontColor=default;labelBackgroundColor=default;" vertex="1" parent="1">
          <mxGeometry x="-570" y="-160" width="100" height="50" as="geometry" />
        </mxCell>
        <mxCell id="9iDccagzdrMHLPE6jfmN-255" style="edgeStyle=none;shape=connector;rounded=0;orthogonalLoop=1;jettySize=auto;html=1;strokeColor=default;align=center;verticalAlign=middle;fontFamily=Helvetica;fontSize=11;fontColor=default;labelBackgroundColor=default;endArrow=none;endFill=0;" edge="1" parent="1" source="9iDccagzdrMHLPE6jfmN-254" target="9iDccagzdrMHLPE6jfmN-246">
          <mxGeometry relative="1" as="geometry" />
        </mxCell>
        <mxCell id="9iDccagzdrMHLPE6jfmN-254" value="DLC Id" style="ellipse;whiteSpace=wrap;html=1;fontStyle=5" vertex="1" parent="1">
          <mxGeometry x="-650" y="-390" width="90" height="50" as="geometry" />
        </mxCell>
        <mxCell id="9iDccagzdrMHLPE6jfmN-256" value="Transaction Id" style="ellipse;whiteSpace=wrap;html=1;fontStyle=5" vertex="1" parent="1">
          <mxGeometry x="-560" y="-370" width="90" height="50" as="geometry" />
        </mxCell>
        <mxCell id="9iDccagzdrMHLPE6jfmN-259" style="edgeStyle=none;shape=connector;rounded=0;orthogonalLoop=1;jettySize=auto;html=1;strokeColor=default;align=center;verticalAlign=middle;fontFamily=Helvetica;fontSize=11;fontColor=default;labelBackgroundColor=default;endArrow=none;endFill=0;" edge="1" parent="1" source="9iDccagzdrMHLPE6jfmN-258" target="9iDccagzdrMHLPE6jfmN-246">
          <mxGeometry relative="1" as="geometry" />
        </mxCell>
        <mxCell id="9iDccagzdrMHLPE6jfmN-258" value="DCL base price at the time" style="ellipse;whiteSpace=wrap;html=1;" vertex="1" parent="1">
          <mxGeometry x="-750" y="-370" width="90" height="50" as="geometry" />
        </mxCell>
        <mxCell id="9iDccagzdrMHLPE6jfmN-265" style="edgeStyle=none;shape=connector;rounded=0;orthogonalLoop=1;jettySize=auto;html=1;strokeColor=default;align=center;verticalAlign=middle;fontFamily=Helvetica;fontSize=11;fontColor=default;labelBackgroundColor=default;endArrow=none;endFill=0;" edge="1" parent="1" source="9iDccagzdrMHLPE6jfmN-261" target="9iDccagzdrMHLPE6jfmN-246">
          <mxGeometry relative="1" as="geometry" />
        </mxCell>
        <mxCell id="9iDccagzdrMHLPE6jfmN-283" value="0,n" style="edgeLabel;html=1;align=center;verticalAlign=middle;resizable=0;points=[];fontFamily=Helvetica;fontSize=11;fontColor=default;labelBackgroundColor=default;" vertex="1" connectable="0" parent="9iDccagzdrMHLPE6jfmN-265">
          <mxGeometry x="0.9166" y="-1" relative="1" as="geometry">
            <mxPoint as="offset" />
          </mxGeometry>
        </mxCell>
        <mxCell id="9iDccagzdrMHLPE6jfmN-261" value="Order" style="rhombus;whiteSpace=wrap;html=1;fontFamily=Helvetica;fontSize=11;fontColor=default;labelBackgroundColor=default;" vertex="1" parent="1">
          <mxGeometry x="-630" y="-20" width="50" height="50" as="geometry" />
        </mxCell>
        <mxCell id="9iDccagzdrMHLPE6jfmN-264" value="" style="edgeStyle=none;shape=connector;rounded=0;orthogonalLoop=1;jettySize=auto;html=1;strokeColor=default;align=center;verticalAlign=middle;fontFamily=Helvetica;fontSize=11;fontColor=default;labelBackgroundColor=default;endArrow=none;endFill=0;" edge="1" parent="1" source="9iDccagzdrMHLPE6jfmN-148" target="9iDccagzdrMHLPE6jfmN-263">
          <mxGeometry relative="1" as="geometry">
            <mxPoint x="-375" y="-135" as="sourcePoint" />
            <mxPoint x="-555" y="-135" as="targetPoint" />
          </mxGeometry>
        </mxCell>
        <mxCell id="9iDccagzdrMHLPE6jfmN-281" value="1" style="edgeLabel;html=1;align=center;verticalAlign=middle;resizable=0;points=[];fontFamily=Helvetica;fontSize=11;fontColor=default;labelBackgroundColor=default;" vertex="1" connectable="0" parent="9iDccagzdrMHLPE6jfmN-264">
          <mxGeometry x="-0.12" relative="1" as="geometry">
            <mxPoint as="offset" />
          </mxGeometry>
        </mxCell>
        <mxCell id="9iDccagzdrMHLPE6jfmN-263" value="Has" style="rhombus;whiteSpace=wrap;html=1;fontFamily=Helvetica;fontSize=11;fontColor=default;labelBackgroundColor=default;" vertex="1" parent="1">
          <mxGeometry x="-440" y="-160" width="50" height="50" as="geometry" />
        </mxCell>
        <mxCell id="9iDccagzdrMHLPE6jfmN-268" value="" style="edgeStyle=none;shape=connector;rounded=0;orthogonalLoop=1;jettySize=auto;html=1;strokeColor=default;align=center;verticalAlign=middle;fontFamily=Helvetica;fontSize=11;fontColor=default;labelBackgroundColor=default;endArrow=none;endFill=0;" edge="1" parent="1" source="9iDccagzdrMHLPE6jfmN-246" target="9iDccagzdrMHLPE6jfmN-267">
          <mxGeometry relative="1" as="geometry">
            <mxPoint x="-592" y="-270" as="sourcePoint" />
            <mxPoint x="-533" y="-160" as="targetPoint" />
          </mxGeometry>
        </mxCell>
        <mxCell id="9iDccagzdrMHLPE6jfmN-279" value="1" style="edgeLabel;html=1;align=center;verticalAlign=middle;resizable=0;points=[];fontFamily=Helvetica;fontSize=11;fontColor=default;labelBackgroundColor=default;" vertex="1" connectable="0" parent="9iDccagzdrMHLPE6jfmN-268">
          <mxGeometry x="-0.5096" relative="1" as="geometry">
            <mxPoint as="offset" />
          </mxGeometry>
        </mxCell>
        <mxCell id="9iDccagzdrMHLPE6jfmN-267" value="Has" style="rhombus;whiteSpace=wrap;html=1;fontFamily=Helvetica;fontSize=11;fontColor=default;labelBackgroundColor=default;" vertex="1" parent="1">
          <mxGeometry x="-590" y="-240" width="50" height="50" as="geometry" />
        </mxCell>
        <mxCell id="9iDccagzdrMHLPE6jfmN-272" style="edgeStyle=none;shape=connector;rounded=0;orthogonalLoop=1;jettySize=auto;html=1;strokeColor=default;align=center;verticalAlign=middle;fontFamily=Helvetica;fontSize=11;fontColor=default;labelBackgroundColor=default;endArrow=none;endFill=0;" edge="1" parent="1" source="9iDccagzdrMHLPE6jfmN-269" target="9iDccagzdrMHLPE6jfmN-252">
          <mxGeometry relative="1" as="geometry" />
        </mxCell>
        <mxCell id="9iDccagzdrMHLPE6jfmN-269" value="Transaction Id" style="ellipse;whiteSpace=wrap;html=1;fontStyle=5" vertex="1" parent="1">
          <mxGeometry x="-475" y="-220" width="90" height="50" as="geometry" />
        </mxCell>
        <mxCell id="9iDccagzdrMHLPE6jfmN-271" style="edgeStyle=none;shape=connector;rounded=0;orthogonalLoop=1;jettySize=auto;html=1;strokeColor=default;align=center;verticalAlign=middle;fontFamily=Helvetica;fontSize=11;fontColor=default;labelBackgroundColor=default;endArrow=none;endFill=0;" edge="1" parent="1" source="9iDccagzdrMHLPE6jfmN-270" target="9iDccagzdrMHLPE6jfmN-252">
          <mxGeometry relative="1" as="geometry" />
        </mxCell>
        <mxCell id="9iDccagzdrMHLPE6jfmN-270" value="DLC Id" style="ellipse;whiteSpace=wrap;html=1;fontStyle=5" vertex="1" parent="1">
          <mxGeometry x="-540" y="-260" width="90" height="50" as="geometry" />
        </mxCell>
        <mxCell id="9iDccagzdrMHLPE6jfmN-273" value="Discount Id" style="ellipse;whiteSpace=wrap;html=1;fontStyle=5" vertex="1" parent="1">
          <mxGeometry x="-600" y="-100" width="90" height="50" as="geometry" />
        </mxCell>
        <mxCell id="9iDccagzdrMHLPE6jfmN-275" value="Discount percent at the time" style="ellipse;whiteSpace=wrap;html=1;" vertex="1" parent="1">
          <mxGeometry x="-500" y="-100" width="90" height="50" as="geometry" />
        </mxCell>
        <mxCell id="9iDccagzdrMHLPE6jfmN-288" value="Status" style="ellipse;whiteSpace=wrap;html=1;fontStyle=0" vertex="1" parent="1">
          <mxGeometry x="-530" y="710" width="90" height="50" as="geometry" />
        </mxCell>
      </root>
    </mxGraphModel>
  </diagram>
</mxfile>
